<svg xmlns="http://www.w3.org/2000/svg" width="616.72" height="479.41" viewBox="0 0 616.72 479.41">
    <title>pg-differ logo</title>
    <path d="M695.93,163.57H681.8c-.12-.13-.25-.13-.37-.25-13.52-9.3-38.65-26.69-74.64-15.21a94.67,94.67,0,0,0-27.66,15.33h-9.06c-77.05,0-139.74,62.69-139.74,139.75v1.57c-.24,10.87-1.08,43.84,27.66,86.11,10,14.86,15.34,33.34,15.34,53.51v30.8a10.78,10.78,0,0,0,10.75,10.75H527.8a10.78,10.78,0,0,0,10.75-10.75V421.43h43v53.75a10.78,10.78,0,0,0,10.75,10.75H636a10.78,10.78,0,0,0,10.75-10.75c0-41.67,8.58-79,26.09-114.14l12.2-24.4,20.77,3.51a32.16,32.16,0,0,1,26.93,31.76v17.27A10.77,10.77,0,0,1,722,399.93a10.6,10.6,0,0,1-7.61-3.14,10.71,10.71,0,0,0-15.22,0l-30.44,30.44a10.71,10.71,0,0,0,0,15.22,74.36,74.36,0,0,0,69.33,19.92c33.46-7.61,59.18-44,59.18-77.78V264.9C797.38,209.1,751.85,163.57,695.93,163.57Z"
          transform="translate(-308.52 -77.98)" fill="#fff"/>
    <path d="M560.05,185.43a66,66,0,0,0-4.83,10.63c-9.06,25.36-2.54,55.07,19.2,88.29l30.32,46.37a10.75,10.75,0,0,0,13.77,3.75C641,323.24,656,307.78,663,288.33c5.92-16.3,5.2-31.52,4.71-42.76-.12-2.65-.24-4.83-.24-6.76a10.75,10.75,0,0,0-21.5,0c0,2.42.13,4.95.25,7.73.84,19.08,2.05,44.57-29,64L592.3,272.63c-17.88-27.3-23.55-50.61-16.91-69.33,8.94-25.12,37.44-34.54,37.68-34.66,25.85-8.21,44,4.1,55.92,12.44,3.26,2.29,5.32,4,9.18,4h17.52a80.05,80.05,0,0,1,79.95,80V384.71c0,25.12-19.81,51.58-42.39,56.77a51.62,51.62,0,0,1-41-7.25L708,418.53a32.25,32.25,0,0,0,46.13-29.11V372.15a53.59,53.59,0,0,0-44.93-53l-28.62-4.71a10.7,10.7,0,0,0-11.36,5.8l-15.82,31.52C635.9,386.89,626.6,424,625.27,464.79H602.93V411a10.77,10.77,0,0,0-10.75-10.75h-21.5l-42.76-.24a10.77,10.77,0,0,0-10.75,10.75v53.75H495V444.5c0-24.52-6.64-47.23-19.08-65.58-24.88-36.72-24.16-64.5-24-73.56v-2.05A118.44,118.44,0,0,1,560.05,185.43"
          transform="translate(-308.52 -77.98)" fill="#3c84c6" stroke="#3c84c6" stroke-linecap="round"
          stroke-miterlimit="10" stroke-width="9"/>
    <circle cx="722.14" cy="260.31" r="10.75" transform="translate(-349.01 94.9) rotate(-13.28)" fill="#fff"/>
    <path d="M793.33,547.38V508.22h10c20.75,0,35.81-17.62,35.81-41.89V376.58c0-24.48,9.27-46.26,25.36-60.77-16.09-14.51-25.36-36.29-25.36-60.77V169c0-23.91-14.87-41.13-36.16-41.89l-9.65-.35V88h10c43.28,0,75.91,34.84,75.91,81.05v86c0,19.72,10.61,34.48,29.1,40.51l6.9,2.25v35.4l-6.72,2.34c-18.6,6.47-29.28,21.43-29.28,41v89.75c0,46.21-32.63,81.05-75.91,81.05Zm-362.91,0c-43.28,0-75.91-34.84-75.91-81.05V376.58c0-19.61-10.67-34.57-29.28-41l-6.71-2.34V297.8l6.9-2.25c18.49-6,29.09-20.79,29.09-40.51V169c0-46.21,32.63-81,75.91-81h10v38.81l-9.64.35c-21.3.76-36.17,18-36.17,41.89v86c0,24.48-9.27,46.26-25.35,60.77,16.08,14.51,25.35,36.29,25.35,60.77v89.75c0,24.27,15.06,41.89,35.81,41.89h10v39.16Z"
          transform="translate(-308.52 -77.98)" fill="#3c84c6"/>
    <path d="M803.33,98c37.4,0,65.91,30.38,65.91,71.05v86c0,25.24,14.49,43,36,50v21c-21.51,7.48-36,25.25-36,50.49v89.75c0,40.67-28.51,71.05-65.91,71.05V518.22c26.18,0,45.81-22,45.81-51.89V376.58c0-25.71,11.22-48.62,32.26-60.77-21-12.15-32.26-35.06-32.26-60.77V169c0-29.92-19.63-50.95-45.81-51.89V98M430.42,98v19.16c-26.18.94-45.81,22-45.81,51.89v86c0,25.71-11.22,48.62-32.25,60.77,21,12.15,32.25,35.06,32.25,60.77v89.75c0,29.92,19.63,51.89,45.81,51.89v19.16c-37.4,0-65.91-30.38-65.91-71.05V376.58c0-25.24-14.49-43-36-50.49v-21c21.5-7,36-24.78,36-50V169c0-40.67,28.51-71,65.91-71M803.33,78h-20v58.46l19.29.69c15.86.57,26.52,13.39,26.52,31.9v86a97.26,97.26,0,0,0,10.49,44.69,84,84,0,0,0,10.88,16.08,84,84,0,0,0-10.88,16.08,97.26,97.26,0,0,0-10.49,44.69v89.75c0,18.78-10.61,31.89-25.81,31.89h-20v59.16h20A83.26,83.26,0,0,0,865,530.74c15.67-16.83,24.29-39.71,24.29-64.41V376.58c0-19.63,12.27-28,22.57-31.6l13.43-4.67V290.54l-13.8-4.5c-14.31-4.66-22.2-15.67-22.2-31V169c0-24.7-8.62-47.58-24.29-64.4A83.24,83.24,0,0,0,803.33,78ZM450.42,78h-20a83.24,83.24,0,0,0-61.62,26.65c-15.66,16.82-24.29,39.7-24.29,64.4v86c0,15.33-7.88,26.34-22.19,31l-13.8,4.5v49.77L322,345c10.29,3.58,22.56,12,22.56,31.6v89.75c0,24.7,8.63,47.58,24.29,64.41a83.26,83.26,0,0,0,61.62,26.64h20V498.22h-20c-15.2,0-25.81-13.11-25.81-31.89V376.58a97.26,97.26,0,0,0-10.49-44.69,83.51,83.51,0,0,0-10.88-16.08,83.51,83.51,0,0,0,10.88-16.08A97.26,97.26,0,0,0,404.61,255V169c0-18.51,10.66-31.33,26.53-31.9l19.28-.69V78Z"
          transform="translate(-308.52 -77.98)" fill="#fff"/>
    <path d="M849.14,255V169c0-29.92-19.63-50.95-45.81-51.89V98c37.4,0,65.91,30.38,65.91,71.05v86c0,25.24,14.49,43,36,50v21c-21.51,7.48-36,25.25-36,50.49v89.75c0,40.67-28.51,71.05-65.91,71.05V518.22c26.18,0,45.81-22,45.81-51.89V376.58c0-25.71,11.22-48.62,32.26-60.77C860.36,303.66,849.14,280.75,849.14,255ZM352.36,315.81c21,12.15,32.25,35.06,32.25,60.77v89.75c0,29.92,19.63,51.89,45.81,51.89v19.16c-37.4,0-65.91-30.38-65.91-71.05V376.58c0-25.24-14.49-43-36-50.49v-21c21.5-7,36-24.78,36-50V169c0-40.67,28.51-71,65.91-71v19.16c-26.18.94-45.81,22-45.81,51.89v86C384.61,280.75,373.39,303.66,352.36,315.81Z"
          transform="translate(-308.52 -77.98)" fill="none" stroke="#3c84c6" stroke-miterlimit="10" stroke-width="6"/>
</svg>
