<svg xmlns="http://www.w3.org/2000/svg" width="1157.63" height="479.41" viewBox="0 0 1157.63 479.41">
    <title>pg-differ logo</title>
    <path d="M447.09,165.89H433c-.12-.13-.24-.13-.36-.25C419.07,156.34,394,139,358,150.43a94.54,94.54,0,0,0-27.66,15.33h-9.06c-77.06,0-139.74,62.69-139.74,139.75v1.57c-.24,10.87-1.09,43.84,27.66,86.11,10,14.86,15.34,33.34,15.34,53.51v30.8a10.78,10.78,0,0,0,10.75,10.75H279a10.78,10.78,0,0,0,10.75-10.75V423.75h43V477.5a10.78,10.78,0,0,0,10.75,10.75h43.72a10.78,10.78,0,0,0,10.75-10.75c0-41.67,8.57-79,26.09-114.14L436.22,339l20.78,3.5a32.17,32.17,0,0,1,26.93,31.77V391.5a10.77,10.77,0,0,1-10.75,10.75,10.61,10.61,0,0,1-7.61-3.14,10.7,10.7,0,0,0-15.21,0l-30.44,30.44a10.71,10.71,0,0,0,0,15.22,74.36,74.36,0,0,0,69.33,19.92c33.45-7.61,59.18-44,59.18-77.78V267.22C548.55,211.42,503,165.89,447.09,165.89Z"
          transform="translate(-59.68 -80.3)" fill="#fff"/>
    <path d="M311.22,187.75a65.16,65.16,0,0,0-4.83,10.63c-9.06,25.36-2.54,55.07,19.2,88.28L355.91,333a10.73,10.73,0,0,0,13.76,3.75c22.47-11.23,37.45-26.69,44.45-46.14,5.92-16.3,5.19-31.52,4.71-42.76-.12-2.65-.24-4.83-.24-6.76a10.75,10.75,0,0,0-21.5,0c0,2.42.12,5,.24,7.73.85,19.08,2.06,44.57-29,64L343.47,275c-17.88-27.3-23.56-50.61-16.91-69.33C335.49,180.5,364,171.08,364.24,171c25.85-8.21,44,4.1,55.92,12.44,3.26,2.29,5.31,4,9.18,4h17.51a80.06,80.06,0,0,1,80,80V387c0,25.12-19.81,51.58-42.4,56.77a51.6,51.6,0,0,1-40.94-7.25l15.7-15.7a32.26,32.26,0,0,0,46.14-29.11V374.47a53.59,53.59,0,0,0-44.93-53l-28.62-4.71a10.69,10.69,0,0,0-11.36,5.8l-15.82,31.52c-17.51,35.15-26.81,72.23-28.14,113.05H354.09V413.36a10.77,10.77,0,0,0-10.75-10.75H321.85l-42.76-.24a10.77,10.77,0,0,0-10.75,10.75v53.75H246.12V446.82c0-24.52-6.65-47.23-19.09-65.58-24.88-36.72-24.15-64.5-24-73.56v-2.05A118.44,118.44,0,0,1,311.22,187.75"
          transform="translate(-59.68 -80.3)" fill="#3c84c6" stroke="#3c84c6" stroke-linecap="round"
          stroke-miterlimit="10" stroke-width="9"/>
    <circle cx="473.3" cy="262.63" r="10.75" transform="translate(-107.36 35.47) rotate(-13.28)" fill="#fff"/>
    <path d="M544.5,549.7V510.54h10c20.75,0,35.81-17.62,35.81-41.89V378.9c0-24.48,9.27-46.26,25.35-60.77-16.08-14.51-25.35-36.29-25.35-60.77v-86c0-23.91-14.87-41.13-36.17-41.89l-9.64-.35V90.3h10c43.28,0,75.91,34.84,75.91,81.05v86c0,19.72,10.61,34.48,29.09,40.51l6.9,2.25v35.4l-6.71,2.34c-18.61,6.47-29.28,21.43-29.28,41v89.75c0,46.21-32.63,81.05-75.91,81.05Zm-362.91,0c-43.28,0-75.91-34.84-75.91-81.05V378.9c0-19.61-10.67-34.57-29.28-41l-6.72-2.34v-35.4l6.9-2.25c18.49-6,29.1-20.79,29.1-40.51v-86c0-46.21,32.63-81,75.91-81h10v38.81l-9.64.35c-21.3.76-36.17,18-36.17,41.89v86c0,24.48-9.27,46.26-25.36,60.77,16.09,14.51,25.36,36.29,25.36,60.77v89.75c0,24.27,15.06,41.89,35.81,41.89h10V549.7Z"
          transform="translate(-59.68 -80.3)" fill="#3c84c6"/>
    <path d="M554.5,100.3c37.4,0,65.91,30.38,65.91,71.05v86c0,25.24,14.49,43,36,50v21c-21.5,7.48-36,25.25-36,50.49v89.75c0,40.67-28.51,71.05-65.91,71.05V520.54c26.18,0,45.81-22,45.81-51.89V378.9c0-25.71,11.22-48.62,32.25-60.77-21-12.15-32.25-35.06-32.25-60.77v-86c0-29.92-19.63-50.95-45.81-51.89V100.3m-372.91,0v19.16c-26.18.94-45.81,22-45.81,51.89v86c0,25.71-11.22,48.62-32.26,60.77,21,12.15,32.26,35.06,32.26,60.77v89.75c0,29.92,19.63,51.89,45.81,51.89V539.7c-37.4,0-65.91-30.38-65.91-71.05V378.9c0-25.24-14.49-43-36-50.49v-21c21.51-7,36-24.78,36-50v-86c0-40.67,28.51-71,65.91-71m372.91-20h-20v58.46l19.29.69c15.86.57,26.52,13.39,26.52,31.9v86a97.26,97.26,0,0,0,10.49,44.69,84,84,0,0,0,10.88,16.08,84,84,0,0,0-10.88,16.08,97.26,97.26,0,0,0-10.49,44.69v89.75c0,18.78-10.61,31.89-25.81,31.89h-20V559.7h20a83.24,83.24,0,0,0,61.62-26.65c15.66-16.82,24.29-39.7,24.29-64.4V378.9c0-19.63,12.27-28,22.57-31.6l13.42-4.67V292.86l-13.79-4.5c-14.32-4.66-22.2-15.67-22.2-31v-86c0-24.7-8.63-47.58-24.29-64.4A83.24,83.24,0,0,0,554.5,80.3Zm-352.91,0h-20A83.24,83.24,0,0,0,120,107c-15.67,16.82-24.29,39.7-24.29,64.4v86c0,15.33-7.89,26.34-22.2,31l-13.8,4.5v49.77l13.43,4.67c10.3,3.58,22.57,12,22.57,31.6v89.75c0,24.7,8.62,47.58,24.29,64.4a83.24,83.24,0,0,0,61.62,26.65h20V500.54h-20c-15.2,0-25.81-13.11-25.81-31.89V378.9a97.26,97.26,0,0,0-10.49-44.69,84,84,0,0,0-10.88-16.08,84,84,0,0,0,10.88-16.08,97.26,97.26,0,0,0,10.49-44.69v-86c0-18.51,10.66-31.33,26.52-31.9l19.29-.69V80.3Z"
          transform="translate(-59.68 -80.3)" fill="#fff"/>
    <path d="M600.31,257.36v-86c0-29.92-19.63-50.95-45.81-51.89V100.3c37.4,0,65.91,30.38,65.91,71.05v86c0,25.24,14.49,43,36,50v21c-21.5,7.48-36,25.25-36,50.49v89.75c0,40.67-28.51,71.05-65.91,71.05V520.54c26.18,0,45.81-22,45.81-51.89V378.9c0-25.71,11.22-48.62,32.25-60.77C611.53,306,600.31,283.07,600.31,257.36ZM103.52,318.13c21,12.15,32.26,35.06,32.26,60.77v89.75c0,29.92,19.63,51.89,45.81,51.89V539.7c-37.4,0-65.91-30.38-65.91-71.05V378.9c0-25.24-14.49-43-36-50.49v-21c21.51-7,36-24.78,36-50v-86c0-40.67,28.51-71,65.91-71v19.16c-26.18.94-45.81,22-45.81,51.89v86C135.78,283.07,124.56,306,103.52,318.13Z"
          transform="translate(-59.68 -80.3)" fill="none" stroke="#3c84c6" stroke-miterlimit="10" stroke-width="6"/>
    <path d="M685.91,488.84V394.53h19.62l.2,1.59A20.77,20.77,0,0,1,716,393.21c15,0,25.14,11.88,25.14,29.57v16.56c0,17.35-10.33,29.46-25.14,29.46a18.59,18.59,0,0,1-5.1-.72v20.76Zm27.65-71c-1.07,0-2.7,0-2.7,5v16.56c0,4.86,1.56,4.86,2.7,4.86.46,0,1.86,0,1.86-4.86V422.78C715.42,420.51,715.1,417.8,713.56,417.8Z"
          transform="translate(-59.68 -80.3)" fill="#3c84c6"/>
    <path d="M716,397.71c12.48,0,20.64,10.08,20.64,25.07v16.56c0,15-8.28,25-20.64,25a15.7,15.7,0,0,1-9.6-3.48v23.52h-16V399h11.16l.72,5.63c3.24-3.71,8.52-7,13.68-7m-2.4,51c4.08,0,6.36-3.12,6.36-9.36V422.78c0-6.24-2.28-9.48-6.36-9.48-4.68,0-7.2,3.24-7.2,9.48v16.56c0,6.24,2.52,9.36,7.2,9.36m2.4-60a23.23,23.23,0,0,0-7.62,1.32H681.4V493.34h34v-20h.6c17.45,0,29.64-14,29.64-34V422.78c0-20.06-12.19-34.07-29.64-34.07Zm-.38,32.11Z"
          transform="translate(-59.68 -80.3)" fill="#fff"/>
    <path d="M784.36,490.52c-16,0-26.25-9.81-26.69-25.61l-.13-4.63H767.8c-7.4-4.78-12.18-13.78-12.18-24.54V421.58c0-16.24,10.71-28.49,24.9-28.49A25.75,25.75,0,0,1,792,395.62l.28-1h19v70.13C811.3,480.42,800.73,490.52,784.36,490.52Zm-1.52-26.19c.2,1.95.61,1.95,1.52,1.95s1.26,0,1.26-1.5v-1.32a23.66,23.66,0,0,1-2.82.44Zm.32-46.41c-1.06,0-2,0-2,3.66v14.16c0,3.78,1,3.78,2,3.78,1.27,0,2.46,0,2.46-3.78V421.58C785.62,417.92,784.54,417.92,783.16,417.92Z"
          transform="translate(-59.68 -80.3)" fill="#3c84c6"/>
    <path d="M780.52,397.59a19.79,19.79,0,0,1,14,5.28l1.08-3.72H806.8v65.63c0,12.84-8.28,21.24-22.44,21.24-13.92,0-21.84-8.4-22.2-21.24h16.2c.36,3.6,2.16,6,6,6s5.76-2.4,5.76-6v-7.92a18.27,18.27,0,0,1-9.6,2.64c-11.76,0-20.4-10.08-20.4-23.76V421.58c0-13.92,8.64-24,20.4-24M783.16,444c4.56,0,7-2.88,7-8.28V421.58c0-5.4-2.4-8.16-7-8.16-4.32,0-6.48,2.76-6.48,8.16v14.16c0,5.4,2.16,8.28,6.48,8.28m-2.64-55.43c-16.76,0-29.4,14.18-29.4,33v14.16a35.68,35.68,0,0,0,5.82,20h-4l.26,9.26c.51,18.21,12.75,30,31.19,30,18.81,0,31.44-12.15,31.44-30.24V390.15H790.4a31.21,31.21,0,0,0-9.88-1.56Zm5.27,31.74Zm-4.76.22Z"
          transform="translate(-59.68 -80.3)" fill="#fff"/>
    <rect x="766.62" y="340.15" width="39" height="22.92" fill="#3c84c6"/>
    <path d="M860.8,424.94v13.92h-30V424.94h30m9-9h-48v31.92h48V415.94Z" transform="translate(-59.68 -80.3)"
          fill="#fff"/>
    <path d="M904,468.68c-15,0-25.14-11.88-25.14-29.58V422.54c0-17.34,10.34-29.45,25.14-29.45a18.91,18.91,0,0,1,5.1.71V371.25h25v96.11H914.44l-.2-1.59A20.81,20.81,0,0,1,904,468.68Zm2.4-51c-.46,0-1.86,0-1.86,4.86V439.1c0,2.28.32,5,1.86,5,1.08,0,2.7,0,2.7-5V422.54C909.1,417.68,907.54,417.68,906.4,417.68Z"
          transform="translate(-59.68 -80.3)" fill="#3c84c6"/>
    <path d="M929.56,375.75v87.11H918.4l-.72-5.64c-3.24,3.72-8.52,7-13.68,7-12.48,0-20.64-10.08-20.64-25.08V422.54c0-15,8.28-25,20.64-25a15.7,15.7,0,0,1,9.6,3.48V375.75h16M906.4,448.58c4.68,0,7.2-3.24,7.2-9.48V422.54c0-6.24-2.52-9.36-7.2-9.36-4.08,0-6.36,3.12-6.36,9.36V439.1c0,6.24,2.28,9.48,6.36,9.48m32.16-81.83h-34v21.84H904c-17.45,0-29.64,14-29.64,34V439.1c0,20.07,12.19,34.08,29.64,34.08a23.29,23.29,0,0,0,7.63-1.32h26.93V366.75Z"
          transform="translate(-59.68 -80.3)" fill="#fff"/>
    <path d="M951.46,467.24V394.65H976.9v72.59Zm12.78-72.95a13.5,13.5,0,0,1,0-27,13.36,13.36,0,0,1,13.5,13.5A13.52,13.52,0,0,1,964.24,394.29Z"
          transform="translate(-59.68 -80.3)" fill="#3c84c6"/>
    <path d="M964.24,371.79a8.84,8.84,0,0,1,9,9,9.06,9.06,0,0,1-9,9,9,9,0,0,1,0-18m8.16,27.36v63.59H956V399.15H972.4m-8.16-36.36a17.6,17.6,0,0,0-18,18,18.2,18.2,0,0,0,2.55,9.36H947v81.59H981.4V390.15h-1.79a18,18,0,0,0-15.37-27.36Z"
          transform="translate(-59.68 -80.3)" fill="#fff"/>
    <path d="M998,467.24v-48.6h-8.88v-24h9c1.09-16,11.26-25.08,28.28-25.08H1035v23.76h-8.58c-1.86,0-2.66,0-3,1.32h10.48v24h-10.68v48.6Z"
          transform="translate(-59.68 -80.3)" fill="#3c84c6"/>
    <path d="M1030.48,374.07v14.76h-4.08c-5.76,0-7.68,2.52-7.68,8.76v1.56h10.68v15h-10.68v48.6h-16.2v-48.6h-8.88v-15h8.88v-1.56c0-13.2,6.48-23.52,23.88-23.52h4.08m9-9H1026.4c-10.86,0-19.33,3.29-25.16,9.8a30.37,30.37,0,0,0-7.09,15.28h-9.51v33h8.88v48.6h34.2v-48.6h10.68V397.83h1.08V365.07Z"
          transform="translate(-59.68 -80.3)" fill="#fff"/>
    <path d="M1050.58,467.24v-48.6h-8.88v-24h9c1.09-16,11.26-25.08,28.28-25.08h8.58v23.76H1079c-1.87,0-2.66,0-3,1.32h10.48v24h-10.68v48.6Z"
          transform="translate(-59.68 -80.3)" fill="#3c84c6"/>
    <path d="M1083,374.07v14.76H1079c-5.76,0-7.68,2.52-7.68,8.76v1.56H1082v15h-10.68v48.6h-16.2v-48.6h-8.88v-15h8.88v-1.56c0-13.2,6.48-23.52,23.88-23.52H1083m9-9H1079c-10.86,0-19.33,3.29-25.16,9.8a30.37,30.37,0,0,0-7.09,15.28h-9.51v33h8.88v48.6h34.2v-48.6H1091V397.83H1092V365.07Z"
          transform="translate(-59.68 -80.3)" fill="#fff"/>
    <path d="M1125.28,468.68c-16.84,0-27.3-11.33-27.3-29.58V422.18c0-17.94,10.51-29.09,27.42-29.09,17.13,0,27.78,11.15,27.78,29.09V438h1.29l-.47,4.94C1152.44,459,1141.7,468.68,1125.28,468.68ZM1123.49,441c.28,3.12,1.31,3.12,2,3.12,2.39,0,2.39,0,3.07-2.71l.1-.41ZM1128,420.8c-.18-3.6-1.28-3.6-2.43-3.6-.9,0-1.91,0-2.08,3.6Z"
          transform="translate(-59.68 -80.3)" fill="#3c84c6"/>
    <path d="M1125.4,397.59c14.64,0,23.28,9.12,23.28,24.59v14.28h-29.76v2.64c0,6.6,2.28,9.48,6.6,9.48,4.92,0,6.36-1.8,7.44-6.12h16.56c-1.32,13.68-10.08,21.72-24.24,21.72s-22.8-9.36-22.8-25.08V422.18c0-15.47,8.52-24.59,22.92-24.59m-6.48,27.71h13.56v-3.36c0-6.48-2.4-9.23-7-9.23-4.32,0-6.6,2.75-6.6,9.23v3.36m6.48-36.71c-19.39,0-31.92,13.18-31.92,33.59V439.1c0,20.71,12.48,34.08,31.8,34.08,18.7,0,31.42-11.44,33.2-29.85l1-9.87h-1.75V422.18c0-20.41-12.67-33.59-32.28-33.59Z"
          transform="translate(-59.68 -80.3)" fill="#fff"/>
    <path d="M1168.78,467.24V394.65h19.07l.35,2a24.36,24.36,0,0,1,13.16-3.56,18.45,18.45,0,0,1,9.19,2l2.27,1.29v25.33l-6.43-3.05a12.81,12.81,0,0,0-5.75-1.24c-6,0-6.54,2.75-6.54,5.33v44.46Z"
          transform="translate(-59.68 -80.3)" fill="#3c84c6"/>
    <path d="M1201.36,397.59a14.31,14.31,0,0,1,7,1.44v15.59a17.23,17.23,0,0,0-7.68-1.67c-6.84,0-11,3.11-11,9.83v40h-16.32V399.15h10.8l1.2,6.72c3.36-5.4,8.88-8.28,16.08-8.28m0-9a30.83,30.83,0,0,0-9.92,1.56h-27.16v81.59h34.32v-49a5.29,5.29,0,0,1,0-.63,9.66,9.66,0,0,1,5.83.61l12.86,6.09V393.8l-4.54-2.59a22.86,22.86,0,0,0-11.42-2.62Z"
          transform="translate(-59.68 -80.3)" fill="#fff"/>
</svg>
