<svg viewBox="0 0 638 487" fill="none" xmlns="http://www.w3.org/2000/svg">
    <path fill-rule="evenodd" clip-rule="evenodd" d="M317.216 62.4928C350.925 51.8211 374.664 68.0734 389.197 78.199L389.207 78.2071L389.219 78.214C389.376 78.3249 389.529 78.4334 389.678 78.5384C393.547 81.2652 394.709 82.0849 397.268 82.0849H418.413C474.48 82.0849 520 127.62 520 183.431V327.425C520 343.86 513.54 360.425 503.613 373.665C493.703 386.882 479.956 397.284 464.859 400.778L464.843 400.783C445.941 405.096 426.876 401.787 411.375 391.312L406.193 387.808L432.168 361.894L435.468 363.47C440.051 365.657 444.919 366.748 450.015 366.748C468.533 366.748 483.686 351.631 483.686 333.157V312.291C483.686 283.172 462.76 258.385 433.77 253.524C433.766 253.523 433.763 253.523 433.759 253.522L399.307 247.909C395.809 247.339 392.522 249.064 391.152 251.993L391.121 252.058L372.017 290.06C372.016 290.063 372.015 290.066 372.013 290.068C351.215 331.681 340.243 375.545 338.658 424.009L338.494 429H301.312V359.181C301.312 354.923 297.767 351.386 293.498 351.386H267.51L215.929 351.042C215.924 351.042 215.92 351.042 215.915 351.042C211.652 351.05 208.115 354.583 208.115 358.837V429H170.996V399.422C170.996 370.885 163.206 344.514 148.903 323.439C118.134 278.158 118.811 243.519 119.054 231.986V229.522C118.937 152.298 178.593 88.7449 254.226 82.4474L263.912 81.6404L259.17 90.1048C257.087 93.8244 255.168 97.7749 253.689 102.095L253.678 102.129L253.665 102.163C243.518 130.51 250.463 164.542 276.332 203.874L276.339 203.883L312.855 259.674C312.859 259.68 312.863 259.686 312.867 259.693C315.136 263.069 319.419 264.165 322.866 262.411L322.884 262.402L322.903 262.393C349.121 249.314 366.065 231.637 374.02 209.759C380.756 191.224 380.037 173.815 379.348 160.305L379.346 160.266L379.345 160.228C379.306 159.156 379.245 158.027 379.186 156.908C379.091 155.117 378.996 153.354 378.996 151.903C378.996 147.645 375.45 144.107 371.182 144.107C366.913 144.107 363.367 147.645 363.367 151.903C363.367 154.635 363.477 157.61 363.7 160.835L363.704 160.896L363.728 161.419C364.238 172.703 364.875 186.805 360.45 201.064C355.888 215.767 346.085 230.283 326.35 242.605L322.058 245.284L289.287 195.429C267.357 162.031 259.545 132.274 268.4 107.413L268.401 107.411C274.318 90.8333 286.597 79.6432 297.08 72.675C302.354 69.1701 307.275 66.665 310.91 65.0233C312.731 64.2014 314.238 63.5918 315.315 63.1786C315.855 62.9719 316.287 62.8149 316.6 62.7041C316.756 62.6487 316.882 62.6048 316.975 62.5736C317.022 62.5575 317.06 62.5448 317.09 62.5344L317.128 62.5217L317.18 62.5044L317.216 62.4928Z" fill="#3C84C6"/>
    <path fill-rule="evenodd" clip-rule="evenodd" d="M39.3861 81.0563C39.2685 35.0065 71.7983 0 114.817 0H118.272V27.6996L114.942 27.8196C88.4649 28.7785 68.176 50.0241 68.176 81.0517V174.979C68.176 202.169 57.0569 226.906 35.9391 241.433C57.1572 256.033 68.2913 280.671 68.2913 307.882V405.948C68.2913 437.098 88.6609 459.178 114.932 459.178H118.387V487H114.932C71.9112 487 39.3861 451.992 39.3861 405.948V307.882C39.3861 281.862 24.5259 263.67 2.31929 255.955L0 255.149V227.206L2.37682 226.427C24.5306 219.163 39.3861 201.115 39.3861 175.095V81.0563ZM519.612 0H523.067C566.088 0 598.614 35.0076 598.614 81.0517V174.979C598.614 201.01 613.478 219.16 635.608 226.307L638 227.079V255.034L635.68 255.839C613.473 263.556 598.614 281.747 598.614 307.766V405.833C598.614 451.996 566.224 487 523.206 487H519.612V459.063H523.067C549.449 459.063 569.708 436.989 569.708 405.833V307.766C569.708 280.677 580.832 255.953 602.035 241.337C580.824 226.903 569.708 202.17 569.708 175.095V81.0517C569.708 50.0241 549.42 28.7785 522.943 27.8196L519.612 27.6996V0Z" fill="#3C84C6"/>
    <circle cx="450" cy="178" r="13" fill="white"/>
</svg>
