<svg xmlns="http://www.w3.org/2000/svg" width="1146.84" height="445.41" viewBox="0 0 1146.84 445.41">
    <title>pg-differ readme logo</title>
    <path d="M311.43,187.75a66,66,0,0,0-4.83,10.63c-9.06,25.36-2.54,55.07,19.2,88.28L356.12,333a10.75,10.75,0,0,0,13.77,3.75c22.46-11.23,37.44-26.69,44.44-46.14,5.92-16.3,5.2-31.52,4.71-42.76-.12-2.65-.24-4.83-.24-6.76a10.75,10.75,0,0,0-21.5,0c0,2.42.12,5,.25,7.73.84,19.08,2.05,44.57-29,64L343.68,275c-17.88-27.3-23.55-50.61-16.91-69.33,8.94-25.12,37.44-34.54,37.68-34.66,25.85-8.21,44,4.1,55.92,12.44,3.26,2.29,5.32,4,9.18,4h17.51a80.06,80.06,0,0,1,80,80V387c0,25.12-19.81,51.58-42.39,56.77a51.62,51.62,0,0,1-40.95-7.25l15.7-15.7a32.26,32.26,0,0,0,46.14-29.11V374.47a53.59,53.59,0,0,0-44.93-53L432,316.74a10.7,10.7,0,0,0-11.36,5.8l-15.82,31.52c-17.51,35.15-26.81,72.23-28.14,113.05H354.31V413.36a10.77,10.77,0,0,0-10.75-10.75h-21.5l-42.76-.24a10.77,10.77,0,0,0-10.75,10.75v53.75H246.33V446.82c0-24.52-6.64-47.23-19.08-65.58-24.88-36.72-24.16-64.5-24-73.56v-2.05A118.44,118.44,0,0,1,311.43,187.75"
          transform="translate(-76.9 -97.3)" fill="#3c84c6" stroke="#3c84c6" stroke-linecap="round"
          stroke-miterlimit="10" stroke-width="9"/>
    <circle cx="473.52" cy="262.63" r="10.75" transform="translate(-124.57 18.52) rotate(-13.28)" fill="#fff"/>
    <path d="M600.52,257.36v-86c0-29.92-19.63-50.95-45.81-51.89V100.3c37.4,0,65.91,30.38,65.91,71.05v86c0,25.24,14.49,43,36,50v21c-21.51,7.48-36,25.25-36,50.49v89.75c0,40.67-28.51,71.05-65.91,71.05V520.54c26.18,0,45.81-22,45.81-51.89V378.9c0-25.71,11.22-48.62,32.26-60.77C611.74,306,600.52,283.07,600.52,257.36ZM103.74,318.13c21,12.15,32.25,35.06,32.25,60.77v89.75c0,29.92,19.63,51.89,45.81,51.89V539.7c-37.4,0-65.91-30.38-65.91-71.05V378.9c0-25.24-14.49-43-36-50.49v-21c21.5-7,36-24.78,36-50v-86c0-40.67,28.51-71,65.91-71v19.16c-26.18.94-45.81,22-45.81,51.89v86C136,283.07,124.77,306,103.74,318.13Z"
          transform="translate(-76.9 -97.3)" fill="#3c84c6"/>
    <path d="M600.52,257.36v-86c0-29.92-19.63-50.95-45.81-51.89V100.3c37.4,0,65.91,30.38,65.91,71.05v86c0,25.24,14.49,43,36,50v21c-21.51,7.48-36,25.25-36,50.49v89.75c0,40.67-28.51,71.05-65.91,71.05V520.54c26.18,0,45.81-22,45.81-51.89V378.9c0-25.71,11.22-48.62,32.26-60.77C611.74,306,600.52,283.07,600.52,257.36ZM103.74,318.13c21,12.15,32.25,35.06,32.25,60.77v89.75c0,29.92,19.63,51.89,45.81,51.89V539.7c-37.4,0-65.91-30.38-65.91-71.05V378.9c0-25.24-14.49-43-36-50.49v-21c21.5-7,36-24.78,36-50v-86c0-40.67,28.51-71,65.91-71v19.16c-26.18.94-45.81,22-45.81,51.89v86C136,283.07,124.77,306,103.74,318.13Z"
          transform="translate(-76.9 -97.3)" fill="none" stroke="#3c84c6" stroke-miterlimit="10" stroke-width="6"/>
    <text transform="translate(607.69 365.75)" font-size="120" fill="#3c84c6" font-family="Akrobat-Black, Akrobat"
          letter-spacing="0.12em">
        pg-differ
    </text>
</svg>
