<svg xmlns="http://www.w3.org/2000/svg" width="1131.6" height="445.41" viewBox="0 0 1131.6 445.41">
    <title>pg-differ readme logo</title>
    <path d="M311.43,187.75a66,66,0,0,0-4.83,10.63c-9.06,25.36-2.54,55.07,19.2,88.28L356.12,333a10.75,10.75,0,0,0,13.77,3.75c22.46-11.23,37.44-26.69,44.44-46.14,5.92-16.3,5.2-31.52,4.71-42.76-.12-2.65-.24-4.83-.24-6.76a10.75,10.75,0,0,0-21.5,0c0,2.42.12,5,.25,7.73.84,19.08,2.05,44.57-29,64L343.68,275c-17.88-27.3-23.55-50.61-16.91-69.33,8.94-25.12,37.44-34.54,37.68-34.66,25.85-8.21,44,4.1,55.92,12.44,3.26,2.29,5.32,4,9.18,4h17.51a80.06,80.06,0,0,1,80,80V387c0,25.12-19.81,51.58-42.39,56.77a51.62,51.62,0,0,1-40.95-7.25l15.7-15.7a32.26,32.26,0,0,0,46.14-29.11V374.47a53.59,53.59,0,0,0-44.93-53L432,316.74a10.7,10.7,0,0,0-11.36,5.8l-15.82,31.52c-17.51,35.15-26.81,72.23-28.14,113.05H354.31V413.36a10.77,10.77,0,0,0-10.75-10.75h-21.5l-42.76-.24a10.77,10.77,0,0,0-10.75,10.75v53.75H246.33V446.82c0-24.52-6.64-47.23-19.08-65.58-24.88-36.72-24.16-64.5-24-73.56v-2.05A118.44,118.44,0,0,1,311.43,187.75"
          transform="translate(-76.9 -97.3)" fill="#3c84c6" stroke="#3c84c6" stroke-linecap="round"
          stroke-miterlimit="10" stroke-width="9"/>
    <circle cx="473.52" cy="262.63" r="10.75" transform="translate(-124.57 18.52) rotate(-13.28)" fill="#fff"/>
    <path d="M600.52,257.36v-86c0-29.92-19.63-50.95-45.81-51.89V100.3c37.4,0,65.91,30.38,65.91,71.05v86c0,25.24,14.49,43,36,50v21c-21.51,7.48-36,25.25-36,50.49v89.75c0,40.67-28.51,71.05-65.91,71.05V520.54c26.18,0,45.81-22,45.81-51.89V378.9c0-25.71,11.22-48.62,32.26-60.77C611.74,306,600.52,283.07,600.52,257.36ZM103.74,318.13c21,12.15,32.25,35.06,32.25,60.77v89.75c0,29.92,19.63,51.89,45.81,51.89V539.7c-37.4,0-65.91-30.38-65.91-71.05V378.9c0-25.24-14.49-43-36-50.49v-21c21.5-7,36-24.78,36-50v-86c0-40.67,28.51-71,65.91-71v19.16c-26.18.94-45.81,22-45.81,51.89v86C136,283.07,124.77,306,103.74,318.13Z"
          transform="translate(-76.9 -97.3)" fill="#3c84c6"/>
    <path d="M600.52,257.36v-86c0-29.92-19.63-50.95-45.81-51.89V100.3c37.4,0,65.91,30.38,65.91,71.05v86c0,25.24,14.49,43,36,50v21c-21.51,7.48-36,25.25-36,50.49v89.75c0,40.67-28.51,71.05-65.91,71.05V520.54c26.18,0,45.81-22,45.81-51.89V378.9c0-25.71,11.22-48.62,32.26-60.77C611.74,306,600.52,283.07,600.52,257.36ZM103.74,318.13c21,12.15,32.25,35.06,32.25,60.77v89.75c0,29.92,19.63,51.89,45.81,51.89V539.7c-37.4,0-65.91-30.38-65.91-71.05V378.9c0-25.24-14.49-43-36-50.49v-21c21.5-7,36-24.78,36-50v-86c0-40.67,28.51-71,65.91-71v19.16c-26.18.94-45.81,22-45.81,51.89v86C136,283.07,124.77,306,103.74,318.13Z"
          transform="translate(-76.9 -97.3)" fill="none" stroke="#3c84c6" stroke-miterlimit="10" stroke-width="6"/>
    <path d="M736.78,423.08v16.56c0,15-8.28,25-20.64,25a15.7,15.7,0,0,1-9.6-3.48v23.52h-16V399.32h11.16l.72,5.64c3.24-3.72,8.52-6.95,13.68-6.95C728.62,398,736.78,408.08,736.78,423.08Zm-16.68,0c0-6.24-2.28-9.48-6.36-9.48-4.68,0-7.2,3.24-7.2,9.48v16.56c0,6.24,2.52,9.36,7.2,9.36,4.08,0,6.36-3.12,6.36-9.36Z"
          transform="translate(-76.9 -97.3)" fill="#3c84c6"/>
    <path d="M807,399.45v65.63c0,12.84-8.28,21.24-22.44,21.24-13.92,0-21.84-8.4-22.2-21.24h16.2c.36,3.6,2.16,6,6,6s5.76-2.4,5.76-6v-7.92a18.27,18.27,0,0,1-9.6,2.64c-11.76,0-20.4-10.08-20.4-23.76V421.88c0-13.92,8.64-24,20.4-24a19.83,19.83,0,0,1,14,5.27l1.08-3.71ZM790.3,436V421.88c0-5.4-2.4-8.16-7-8.16-4.32,0-6.48,2.76-6.48,8.16V436c0,5.4,2.16,8.28,6.48,8.28C787.9,444.32,790.3,441.44,790.3,436Z"
          transform="translate(-76.9 -97.3)" fill="#3c84c6"/>
    <path d="M831,425.24h30v13.92H831Z" transform="translate(-76.9 -97.3)" fill="#3c84c6"/>
    <path d="M929.74,376.05v87.11H918.58l-.72-5.64c-3.24,3.72-8.52,7-13.68,7-12.48,0-20.64-10.08-20.64-25.08V422.84c0-15,8.28-24.95,20.64-24.95a15.64,15.64,0,0,1,9.6,3.48V376.05Zm-16,46.79c0-6.24-2.52-9.36-7.2-9.36-4.08,0-6.36,3.12-6.36,9.36V439.4c0,6.24,2.28,9.48,6.36,9.48,4.68,0,7.2-3.24,7.2-9.48Z"
          transform="translate(-76.9 -97.3)" fill="#3c84c6"/>
    <path d="M955.42,381.09a8.7,8.7,0,0,1,9-9,8.84,8.84,0,0,1,9,9,9.06,9.06,0,0,1-9,9A8.77,8.77,0,0,1,955.42,381.09Zm.72,18.36h16.44V463H956.14Z"
          transform="translate(-76.9 -97.3)" fill="#3c84c6"/>
    <path d="M1018.9,397.89v1.56h10.68v15H1018.9V463h-16.2v-48.6h-8.88v-15h8.88v-1.56c0-13.2,6.48-23.52,23.88-23.52h4.08v14.76h-4.08C1020.82,389.13,1018.9,391.65,1018.9,397.89Z"
          transform="translate(-76.9 -97.3)" fill="#3c84c6"/>
    <path d="M1071.46,397.89v1.56h10.68v15h-10.68V463h-16.2v-48.6h-8.88v-15h8.88v-1.56c0-13.2,6.48-23.52,23.88-23.52h4.08v14.76h-4.08C1073.38,389.13,1071.46,391.65,1071.46,397.89Z"
          transform="translate(-76.9 -97.3)" fill="#3c84c6"/>
    <path d="M1149.7,442.76c-1.32,13.68-10.08,21.72-24.24,21.72s-22.8-9.36-22.8-25.08V422.48c0-15.48,8.52-24.59,22.92-24.59,14.64,0,23.28,9.11,23.28,24.59v14.28H1119.1v2.64c0,6.6,2.28,9.48,6.6,9.48,4.92,0,6.36-1.8,7.44-6.12Zm-30.6-20.52v3.36h13.56v-3.36c0-6.48-2.4-9.24-7-9.24C1121.38,413,1119.1,415.76,1119.1,422.24Z"
          transform="translate(-76.9 -97.3)" fill="#3c84c6"/>
    <path d="M1208.5,399.32v15.6a17.23,17.23,0,0,0-7.68-1.68c-6.84,0-11,3.12-11,9.84v40h-16.32V399.45h10.8l1.2,6.71c3.36-5.39,8.88-8.27,16.08-8.27A14.43,14.43,0,0,1,1208.5,399.32Z"
          transform="translate(-76.9 -97.3)" fill="#3c84c6"/>
</svg>
