<svg viewBox="0 -20 1280 527" fill="none" xmlns="http://www.w3.org/2000/svg">
    <path d="M820 355H856V373H820V355Z" fill="#3C84C6"/>
    <path d="M1280 324.5V343.663C1277.27 342.396 1273.43 340.541 1269.78 340.541C1261.59 340.541 1256.58 344.341 1256.58 352.518V401H1237V323.843H1249.98L1251.46 332.019C1255.44 325.455 1262.16 322 1270.69 322C1274.11 322 1277.95 323.349 1280 324.5Z" fill="#3C84C6"/>
    <path d="M791 323.724V403.256C791 418.772 780.921 429 763.543 429C746.512 429 736.896 418.772 736.432 403.256H756.243C756.707 407.623 758.908 410.496 763.543 410.496C768.06 410.496 770.609 407.623 770.609 403.256V393.716C767.249 395.786 763.311 396.934 758.908 396.934C744.542 396.934 734 384.752 734 368.202V351.077C734 334.183 744.542 322 758.908 322C765.628 322 771.652 324.184 776.054 328.436L777.329 323.954H791V323.724ZM770.609 368.087V350.963C770.609 344.411 767.713 341.079 762.152 341.079C756.823 341.079 754.274 344.411 754.274 350.963V368.087C754.274 374.639 756.939 378.087 762.152 378.087C767.713 378.087 770.609 374.639 770.609 368.087Z" fill="#3C84C6"/>
    <path d="M1207 374.902C1205.41 391.313 1195.01 401 1178.14 401C1161.07 401 1151 389.718 1151 370.915V350.515C1151 331.94 1161.18 321 1178.37 321C1195.8 321 1206.09 331.94 1206.09 350.515V367.724H1170.57V370.915C1170.57 378.891 1173.29 382.31 1178.48 382.31C1184.37 382.31 1186.07 380.145 1187.31 374.902H1207ZM1170.57 350.287V354.276H1186.75V350.287C1186.75 342.538 1183.92 339.233 1178.48 339.233C1173.29 339.12 1170.57 342.424 1170.57 350.287Z" fill="#3C84C6"/>
    <path d="M706 351.332V371.438C706 389.592 695.817 401.655 680.485 401.655C676.154 401.655 672.058 400.046 668.664 397.404V429H649V322.608H662.811L663.748 329.387C667.727 324.906 674.281 321 680.602 321C695.934 321 706 333.178 706 351.332ZM685.4 351.332C685.4 343.748 682.591 339.842 677.559 339.842C671.824 339.842 668.664 343.748 668.664 351.332V371.438C668.664 379.02 671.824 382.812 677.559 382.812C682.591 382.812 685.4 379.02 685.4 371.438V351.332Z" fill="#3C84C6"/>
    <path d="M941 294V401H927.622L926.283 392.619C922.312 397.097 915.771 401 909.463 401C894.045 401 884 388.83 884 370.691V350.599C884 332.46 894.162 320.406 909.463 320.406C913.784 320.406 917.873 322.012 921.261 324.653V294H941ZM921.378 350.599C921.378 343.022 918.223 339.233 912.499 339.233C907.477 339.233 904.675 343.022 904.675 350.599V370.691C904.675 378.268 907.477 382.171 912.499 382.171C918.223 382.171 921.378 378.268 921.378 370.691V350.599Z" fill="#3C84C6"/>
    <path d="M1112.97 322.411V324.244H1125.75V342.344H1112.97V401H1093.63V342.344H1083V324.244H1093.63V322.411C1093.63 306.487 1101.32 294 1122.14 294H1127V311.871H1122.14C1115.24 311.871 1112.97 314.85 1112.97 322.411Z" fill="#3C84C6"/>
    <path d="M1048.65 322.411V324.244H1061.73V342.344H1048.65V401H1028.87V342.344H1018V324.244H1028.87V322.411C1028.87 306.487 1036.74 294 1058.02 294H1063V311.871H1058.02C1050.97 311.871 1048.65 314.85 1048.65 322.411Z" fill="#3C84C6"/>
    <path d="M972 301.908C972 295.708 976.516 291 983 291C989.136 291 994 295.592 994 301.908C994 307.764 989.136 312.817 983 312.817C976.516 312.817 972 307.994 972 301.908ZM972.81 324.069H992.842V401H972.81V324.069Z" fill="#3C84C6"/>
    <path fill-rule="evenodd" clip-rule="evenodd" d="M317.216 62.4928C350.925 51.8211 374.664 68.0734 389.197 78.199L389.207 78.2071L389.219 78.214C389.376 78.3249 389.529 78.4334 389.678 78.5384C393.547 81.2652 394.709 82.0849 397.268 82.0849H418.413C474.48 82.0849 520 127.62 520 183.431V327.425C520 343.86 513.54 360.425 503.613 373.665C493.703 386.882 479.956 397.284 464.859 400.778L464.843 400.783C445.941 405.096 426.876 401.787 411.375 391.312L406.193 387.808L432.168 361.894L435.468 363.47C440.051 365.657 444.919 366.748 450.015 366.748C468.533 366.748 483.686 351.631 483.686 333.157V312.291C483.686 283.172 462.76 258.385 433.77 253.524C433.766 253.523 433.763 253.523 433.759 253.522L399.307 247.909C395.809 247.339 392.522 249.064 391.152 251.993L391.121 252.058L372.017 290.06C372.016 290.063 372.015 290.066 372.013 290.068C351.215 331.681 340.243 375.545 338.658 424.009L338.494 429H301.312V359.181C301.312 354.923 297.767 351.386 293.498 351.386H267.51L215.929 351.042C215.924 351.042 215.92 351.042 215.915 351.042C211.652 351.05 208.115 354.583 208.115 358.837V429H170.996V399.422C170.996 370.885 163.206 344.514 148.903 323.439C118.134 278.158 118.811 243.519 119.054 231.986V229.522C118.937 152.298 178.593 88.7449 254.226 82.4474L263.912 81.6404L259.17 90.1048C257.087 93.8244 255.168 97.7749 253.689 102.095L253.678 102.129L253.665 102.163C243.518 130.51 250.463 164.542 276.332 203.874L276.339 203.883L312.855 259.674C312.859 259.68 312.863 259.686 312.867 259.693C315.136 263.069 319.419 264.165 322.866 262.411L322.884 262.402L322.903 262.393C349.121 249.314 366.065 231.637 374.02 209.759C380.756 191.224 380.037 173.815 379.348 160.305L379.346 160.266L379.345 160.228C379.306 159.156 379.245 158.027 379.186 156.908C379.091 155.117 378.996 153.354 378.996 151.903C378.996 147.645 375.45 144.107 371.182 144.107C366.913 144.107 363.367 147.645 363.367 151.903C363.367 154.635 363.477 157.61 363.7 160.835L363.704 160.896L363.728 161.419C364.238 172.703 364.875 186.805 360.45 201.064C355.888 215.767 346.085 230.283 326.35 242.605L322.058 245.284L289.287 195.429C267.357 162.031 259.545 132.274 268.4 107.413L268.401 107.411C274.318 90.8333 286.597 79.6432 297.08 72.675C302.354 69.1701 307.275 66.665 310.91 65.0233C312.731 64.2014 314.238 63.5918 315.315 63.1786C315.855 62.9719 316.287 62.8149 316.6 62.7041C316.756 62.6487 316.882 62.6048 316.975 62.5736C317.022 62.5575 317.06 62.5448 317.09 62.5344L317.128 62.5217L317.18 62.5044L317.216 62.4928Z" fill="#3C84C6"/>
    <path fill-rule="evenodd" clip-rule="evenodd" d="M39.3861 81.0563C39.2685 35.0065 71.7983 0 114.817 0H118.272V27.6996L114.942 27.8196C88.4649 28.7785 68.176 50.0241 68.176 81.0517V174.979C68.176 202.169 57.0569 226.906 35.9391 241.433C57.1572 256.033 68.2913 280.671 68.2913 307.882V405.948C68.2913 437.098 88.6609 459.178 114.932 459.178H118.387V487H114.932C71.9112 487 39.3861 451.992 39.3861 405.948V307.882C39.3861 281.862 24.5259 263.67 2.31929 255.955L0 255.149V227.206L2.37682 226.427C24.5306 219.163 39.3861 201.115 39.3861 175.095V81.0563ZM519.612 0H523.067C566.088 0 598.614 35.0076 598.614 81.0517V174.979C598.614 201.01 613.478 219.16 635.608 226.307L638 227.079V255.034L635.68 255.839C613.473 263.556 598.614 281.747 598.614 307.766V405.833C598.614 451.996 566.224 487 523.206 487H519.612V459.063H523.067C549.449 459.063 569.708 436.989 569.708 405.833V307.766C569.708 280.677 580.832 255.953 602.035 241.337C580.824 226.903 569.708 202.17 569.708 175.095V81.0517C569.708 50.0241 549.42 28.7785 522.943 27.8196L519.612 27.6996V0Z" fill="#3C84C6"/>
    <circle cx="450" cy="178" r="13" fill="white"/>
</svg>
