<svg xmlns="http://www.w3.org/2000/svg" xmlns:xlink="http://www.w3.org/1999/xlink" id="terminal" baseProfile="full" viewBox="0 0 663 370" width="663" version="1.1">
    <defs>
        <style type="text/css"><![CDATA[#screen {
                font-family: 'DejaVu Sans Mono', monospace;
                font-style: normal;
                font-size: 14px;
            }

        text {
            dominant-baseline: text-before-edge;
            white-space: pre;
        }

            :root {
                --animation-duration: 16406ms;
            }

            @keyframes roll {
                0.000%{transform:translateY(0px)}
0.061%{transform:translateY(-306px)}
8.302%{transform:translateY(-612px)}
8.692%{transform:translateY(-918px)}
9.692%{transform:translateY(-1224px)}
10.319%{transform:translateY(-1530px)}
10.545%{transform:translateY(-1836px)}
11.471%{transform:translateY(-2142px)}
11.715%{transform:translateY(-2448px)}
12.191%{transform:translateY(-2754px)}
12.678%{transform:translateY(-3060px)}
13.044%{transform:translateY(-3366px)}
13.434%{transform:translateY(-3672px)}
14.044%{transform:translateY(-3978px)}
14.324%{transform:translateY(-4284px)}
14.653%{transform:translateY(-4590px)}
20.048%{transform:translateY(-4896px)}
23.205%{transform:translateY(-5202px)}
28.039%{transform:translateY(-5508px)}
28.648%{transform:translateY(-5814px)}
29.258%{transform:translateY(-6120px)}
32.915%{transform:translateY(-6426px)}
34.439%{transform:translateY(-6732px)}
34.804%{transform:translateY(-7038px)}
39.163%{transform:translateY(-7344px)}
40.997%{transform:translateY(-7650px)}
41.997%{transform:translateY(-7956px)}
42.625%{transform:translateY(-8262px)}
42.850%{transform:translateY(-8568px)}
43.777%{transform:translateY(-8874px)}
44.020%{transform:translateY(-9180px)}
44.496%{transform:translateY(-9486px)}
44.984%{transform:translateY(-9792px)}
45.349%{transform:translateY(-10098px)}
45.739%{transform:translateY(-10404px)}
46.349%{transform:translateY(-10710px)}
46.629%{transform:translateY(-11016px)}
46.958%{transform:translateY(-11322px)}
54.864%{transform:translateY(-11628px)}
56.851%{transform:translateY(-11934px)}
57.333%{transform:translateY(-12240px)}
100.000%{transform:translateY(-12240px)}
            }

            #screen_view {
                animation-duration: 16406ms;
                animation-iteration-count:infinite;
                animation-name:roll;
                animation-timing-function: steps(1,end);
                animation-fill-mode: forwards;
            }
        ]]></style>
        <style type="text/css" id="user-style">
            /* gjm8 color theme (source: https://terminal.sexy/) */
            .foreground {fill: #f8f8f2}
            .background {fill: #272822}
            .color0 {fill: #272822}
            .color1 {fill: #f92672}
            .color2 {fill: #a6e22e}
            .color3 {fill: #f4bf75}
            .color4 {fill: #66d9ef}
            .color5 {fill: #ae81ff}
            .color6 {fill: #a1efe4}
            .color7 {fill: #f8f8f2}
            .color8 {fill: #75715e}
            .color9 {fill: #fd971f}
            .color10 {fill: #383830}
            .color11 {fill: #49483e}
            .color12 {fill: #a59f85}
            .color13 {fill: #f5f4f1}
            .color14 {fill: #cc6633}
            .color15 {fill: #f9f8f5}
        </style>
    </defs>
    <rect class="background" width="100%" height="100%" ry="4.5826941"/>
    <circle cx="24" cy="23" r="7" class="color1"/>
    <circle cx="44" cy="23" r="7" class="color3"/>
    <circle cx="64" cy="23" r="7" class="color2"/>
    <svg id="screen" width="616" height="289" x="23" y="50" viewBox="0 0 616 289" preserveAspectRatio="xMidYMin slice">
        <rect class="background" height="100%" width="100%" x="0" y="0"/><defs><g id="g1"><text class="background" textLength="8" x="0"> </text></g><g id="g2"><text class="color2" textLength="8" x="0">&gt;</text><text class="foreground" textLength="8" x="8"> </text><text class="background" textLength="8" x="16"> </text></g><g id="g3"><text class="color2" textLength="8" x="0">&gt;</text><text class="foreground" textLength="16" x="8"> n</text><text class="background" textLength="8" x="24"> </text></g><g id="g4"><text class="color2" textLength="8" x="0">&gt;</text><text class="foreground" textLength="24" x="8"> no</text><text class="background" textLength="8" x="32"> </text></g><g id="g5"><text class="color2" textLength="8" x="0">&gt;</text><text class="foreground" textLength="32" x="8"> nod</text><text class="background" textLength="8" x="40"> </text></g><g id="g6"><text class="color2" textLength="8" x="0">&gt;</text><text class="foreground" textLength="40" x="8"> node</text><text class="background" textLength="8" x="48"> </text></g><g id="g7"><text class="color2" textLength="8" x="0">&gt;</text><text class="foreground" textLength="48" x="8"> node </text><text class="background" textLength="8" x="56"> </text></g><g id="g8"><text class="color2" textLength="8" x="0">&gt;</text><text class="foreground" textLength="56" x="8"> node s</text><text class="background" textLength="8" x="64"> </text></g><g id="g9"><text class="color2" textLength="8" x="0">&gt;</text><text class="foreground" textLength="64" x="8"> node se</text><text class="background" textLength="8" x="72"> </text></g><g id="g10"><text class="color2" textLength="8" x="0">&gt;</text><text class="foreground" textLength="72" x="8"> node ser</text><text class="background" textLength="8" x="80"> </text></g><g id="g11"><text class="color2" textLength="8" x="0">&gt;</text><text class="foreground" textLength="80" x="8"> node serv</text><text class="background" textLength="8" x="88"> </text></g><g id="g12"><text class="color2" textLength="8" x="0">&gt;</text><text class="foreground" textLength="88" x="8"> node serve</text><text class="background" textLength="8" x="96"> </text></g><g id="g13"><text class="color2" textLength="8" x="0">&gt;</text><text class="foreground" textLength="96" x="8"> node server</text><text class="background" textLength="8" x="104"> </text></g><g id="g14"><text class="color2" textLength="8" x="0">&gt;</text><text class="foreground" textLength="104" x="8"> node server.</text><text class="background" textLength="8" x="112"> </text></g><g id="g15"><text class="color2" textLength="8" x="0">&gt;</text><text class="foreground" textLength="112" x="8"> node server.j</text><text class="background" textLength="8" x="120"> </text></g><g id="g16"><text class="color2" textLength="8" x="0">&gt;</text><text class="foreground" textLength="120" x="8"> node server.js</text></g><g id="g17"><text class="foreground" textLength="144" x="0">Postgres Differ &gt; </text><text class="color2" textLength="96" x="144">Sync started</text></g><g id="g18"><text class="foreground" textLength="528" x="0">create sequence "public"."roles_id_seq" start 1 increment 1 cycle;</text></g><g id="g19"><text class="foreground" textLength="504" x="0">alter table "public"."users" alter column "age" set default 16;</text></g><g id="g20"><text class="foreground" textLength="608" x="0">alter table "public"."users" alter column "age" type character varying(255);</text></g><g id="g21"><text class="foreground" textLength="496" x="0">alter table "public"."users" add column "parent" integer null;</text></g><g id="g22"><text class="foreground" textLength="616" x="0">create table "public"."roles" ( "id" bigint nextval('"public"."roles_id_seq"'</text></g><g id="g23"><text class="foreground" textLength="536" x="0">::regclass) not null, "body" json default '{"key":"value"}' null );</text></g><g id="g24"><text class="foreground" textLength="144" x="0">Postgres Differ &gt; </text><text class="color2" textLength="128" x="144">Sync successful!</text></g><g id="g25"><text class="foreground" textLength="392" x="0">Postgres Differ &gt; Database does not need updating</text></g></defs><g id="screen_view"><g><rect class="foreground" height="17" width="8" x="0" y="0"/><use y="0" xlink:href="#g1"/></g><g><rect class="foreground" height="17" width="8" x="16" y="306"/><use y="306" xlink:href="#g2"/></g><g><rect class="foreground" height="17" width="8" x="24" y="612"/><use y="612" xlink:href="#g3"/></g><g><rect class="foreground" height="17" width="8" x="32" y="918"/><use y="918" xlink:href="#g4"/></g><g><rect class="foreground" height="17" width="8" x="40" y="1224"/><use y="1224" xlink:href="#g5"/></g><g><rect class="foreground" height="17" width="8" x="48" y="1530"/><use y="1530" xlink:href="#g6"/></g><g><rect class="foreground" height="17" width="8" x="56" y="1836"/><use y="1836" xlink:href="#g7"/></g><g><rect class="foreground" height="17" width="8" x="64" y="2142"/><use y="2142" xlink:href="#g8"/></g><g><rect class="foreground" height="17" width="8" x="72" y="2448"/><use y="2448" xlink:href="#g9"/></g><g><rect class="foreground" height="17" width="8" x="80" y="2754"/><use y="2754" xlink:href="#g10"/></g><g><rect class="foreground" height="17" width="8" x="88" y="3060"/><use y="3060" xlink:href="#g11"/></g><g><rect class="foreground" height="17" width="8" x="96" y="3366"/><use y="3366" xlink:href="#g12"/></g><g><rect class="foreground" height="17" width="8" x="104" y="3672"/><use y="3672" xlink:href="#g13"/></g><g><rect class="foreground" height="17" width="8" x="112" y="3978"/><use y="3978" xlink:href="#g14"/></g><g><rect class="foreground" height="17" width="8" x="120" y="4284"/><use y="4284" xlink:href="#g15"/></g><g><use y="4590" xlink:href="#g16"/><rect class="foreground" height="17" width="8" x="0" y="4607"/><use y="4607" xlink:href="#g1"/></g><g><use y="4896" xlink:href="#g16"/><use y="4913" xlink:href="#g17"/><rect class="foreground" height="17" width="8" x="0" y="4930"/><use y="4930" xlink:href="#g1"/></g><g><use y="5202" xlink:href="#g16"/><use y="5219" xlink:href="#g17"/><use y="5236" xlink:href="#g18"/><rect class="foreground" height="17" width="8" x="0" y="5253"/><use y="5253" xlink:href="#g1"/></g><g><use y="5508" xlink:href="#g16"/><use y="5525" xlink:href="#g17"/><use y="5542" xlink:href="#g18"/><use y="5559" xlink:href="#g19"/><rect class="foreground" height="17" width="8" x="0" y="5576"/><use y="5576" xlink:href="#g1"/></g><g><use y="5814" xlink:href="#g16"/><use y="5831" xlink:href="#g17"/><use y="5848" xlink:href="#g18"/><use y="5865" xlink:href="#g19"/><use y="5882" xlink:href="#g20"/><rect class="foreground" height="17" width="8" x="0" y="5899"/><use y="5899" xlink:href="#g1"/></g><g><use y="6120" xlink:href="#g16"/><use y="6137" xlink:href="#g17"/><use y="6154" xlink:href="#g18"/><use y="6171" xlink:href="#g19"/><use y="6188" xlink:href="#g20"/><use y="6205" xlink:href="#g21"/><rect class="foreground" height="17" width="8" x="0" y="6222"/><use y="6222" xlink:href="#g1"/></g><g><use y="6426" xlink:href="#g16"/><use y="6443" xlink:href="#g17"/><use y="6460" xlink:href="#g18"/><use y="6477" xlink:href="#g19"/><use y="6494" xlink:href="#g20"/><use y="6511" xlink:href="#g21"/><use y="6528" xlink:href="#g22"/><use y="6545" xlink:href="#g23"/><rect class="foreground" height="17" width="8" x="0" y="6562"/><use y="6562" xlink:href="#g1"/></g><g><use y="6732" xlink:href="#g16"/><use y="6749" xlink:href="#g17"/><use y="6766" xlink:href="#g18"/><use y="6783" xlink:href="#g19"/><use y="6800" xlink:href="#g20"/><use y="6817" xlink:href="#g21"/><use y="6834" xlink:href="#g22"/><use y="6851" xlink:href="#g23"/><use y="6868" xlink:href="#g24"/><rect class="foreground" height="17" width="8" x="0" y="6902"/><use y="6902" xlink:href="#g1"/></g><g><use y="7038" xlink:href="#g16"/><use y="7055" xlink:href="#g17"/><use y="7072" xlink:href="#g18"/><use y="7089" xlink:href="#g19"/><use y="7106" xlink:href="#g20"/><use y="7123" xlink:href="#g21"/><use y="7140" xlink:href="#g22"/><use y="7157" xlink:href="#g23"/><use y="7174" xlink:href="#g24"/><rect class="foreground" height="17" width="8" x="16" y="7208"/><use y="7208" xlink:href="#g2"/></g><g><use y="7344" xlink:href="#g16"/><use y="7361" xlink:href="#g17"/><use y="7378" xlink:href="#g18"/><use y="7395" xlink:href="#g19"/><use y="7412" xlink:href="#g20"/><use y="7429" xlink:href="#g21"/><use y="7446" xlink:href="#g22"/><use y="7463" xlink:href="#g23"/><use y="7480" xlink:href="#g24"/><rect class="foreground" height="17" width="8" x="24" y="7514"/><use y="7514" xlink:href="#g3"/></g><g><use y="7650" xlink:href="#g16"/><use y="7667" xlink:href="#g17"/><use y="7684" xlink:href="#g18"/><use y="7701" xlink:href="#g19"/><use y="7718" xlink:href="#g20"/><use y="7735" xlink:href="#g21"/><use y="7752" xlink:href="#g22"/><use y="7769" xlink:href="#g23"/><use y="7786" xlink:href="#g24"/><rect class="foreground" height="17" width="8" x="32" y="7820"/><use y="7820" xlink:href="#g4"/></g><g><use y="7956" xlink:href="#g16"/><use y="7973" xlink:href="#g17"/><use y="7990" xlink:href="#g18"/><use y="8007" xlink:href="#g19"/><use y="8024" xlink:href="#g20"/><use y="8041" xlink:href="#g21"/><use y="8058" xlink:href="#g22"/><use y="8075" xlink:href="#g23"/><use y="8092" xlink:href="#g24"/><rect class="foreground" height="17" width="8" x="40" y="8126"/><use y="8126" xlink:href="#g5"/></g><g><use y="8262" xlink:href="#g16"/><use y="8279" xlink:href="#g17"/><use y="8296" xlink:href="#g18"/><use y="8313" xlink:href="#g19"/><use y="8330" xlink:href="#g20"/><use y="8347" xlink:href="#g21"/><use y="8364" xlink:href="#g22"/><use y="8381" xlink:href="#g23"/><use y="8398" xlink:href="#g24"/><rect class="foreground" height="17" width="8" x="48" y="8432"/><use y="8432" xlink:href="#g6"/></g><g><use y="8568" xlink:href="#g16"/><use y="8585" xlink:href="#g17"/><use y="8602" xlink:href="#g18"/><use y="8619" xlink:href="#g19"/><use y="8636" xlink:href="#g20"/><use y="8653" xlink:href="#g21"/><use y="8670" xlink:href="#g22"/><use y="8687" xlink:href="#g23"/><use y="8704" xlink:href="#g24"/><rect class="foreground" height="17" width="8" x="56" y="8738"/><use y="8738" xlink:href="#g7"/></g><g><use y="8874" xlink:href="#g16"/><use y="8891" xlink:href="#g17"/><use y="8908" xlink:href="#g18"/><use y="8925" xlink:href="#g19"/><use y="8942" xlink:href="#g20"/><use y="8959" xlink:href="#g21"/><use y="8976" xlink:href="#g22"/><use y="8993" xlink:href="#g23"/><use y="9010" xlink:href="#g24"/><rect class="foreground" height="17" width="8" x="64" y="9044"/><use y="9044" xlink:href="#g8"/></g><g><use y="9180" xlink:href="#g16"/><use y="9197" xlink:href="#g17"/><use y="9214" xlink:href="#g18"/><use y="9231" xlink:href="#g19"/><use y="9248" xlink:href="#g20"/><use y="9265" xlink:href="#g21"/><use y="9282" xlink:href="#g22"/><use y="9299" xlink:href="#g23"/><use y="9316" xlink:href="#g24"/><rect class="foreground" height="17" width="8" x="72" y="9350"/><use y="9350" xlink:href="#g9"/></g><g><use y="9486" xlink:href="#g16"/><use y="9503" xlink:href="#g17"/><use y="9520" xlink:href="#g18"/><use y="9537" xlink:href="#g19"/><use y="9554" xlink:href="#g20"/><use y="9571" xlink:href="#g21"/><use y="9588" xlink:href="#g22"/><use y="9605" xlink:href="#g23"/><use y="9622" xlink:href="#g24"/><rect class="foreground" height="17" width="8" x="80" y="9656"/><use y="9656" xlink:href="#g10"/></g><g><use y="9792" xlink:href="#g16"/><use y="9809" xlink:href="#g17"/><use y="9826" xlink:href="#g18"/><use y="9843" xlink:href="#g19"/><use y="9860" xlink:href="#g20"/><use y="9877" xlink:href="#g21"/><use y="9894" xlink:href="#g22"/><use y="9911" xlink:href="#g23"/><use y="9928" xlink:href="#g24"/><rect class="foreground" height="17" width="8" x="88" y="9962"/><use y="9962" xlink:href="#g11"/></g><g><use y="10098" xlink:href="#g16"/><use y="10115" xlink:href="#g17"/><use y="10132" xlink:href="#g18"/><use y="10149" xlink:href="#g19"/><use y="10166" xlink:href="#g20"/><use y="10183" xlink:href="#g21"/><use y="10200" xlink:href="#g22"/><use y="10217" xlink:href="#g23"/><use y="10234" xlink:href="#g24"/><rect class="foreground" height="17" width="8" x="96" y="10268"/><use y="10268" xlink:href="#g12"/></g><g><use y="10404" xlink:href="#g16"/><use y="10421" xlink:href="#g17"/><use y="10438" xlink:href="#g18"/><use y="10455" xlink:href="#g19"/><use y="10472" xlink:href="#g20"/><use y="10489" xlink:href="#g21"/><use y="10506" xlink:href="#g22"/><use y="10523" xlink:href="#g23"/><use y="10540" xlink:href="#g24"/><rect class="foreground" height="17" width="8" x="104" y="10574"/><use y="10574" xlink:href="#g13"/></g><g><use y="10710" xlink:href="#g16"/><use y="10727" xlink:href="#g17"/><use y="10744" xlink:href="#g18"/><use y="10761" xlink:href="#g19"/><use y="10778" xlink:href="#g20"/><use y="10795" xlink:href="#g21"/><use y="10812" xlink:href="#g22"/><use y="10829" xlink:href="#g23"/><use y="10846" xlink:href="#g24"/><rect class="foreground" height="17" width="8" x="112" y="10880"/><use y="10880" xlink:href="#g14"/></g><g><use y="11016" xlink:href="#g16"/><use y="11033" xlink:href="#g17"/><use y="11050" xlink:href="#g18"/><use y="11067" xlink:href="#g19"/><use y="11084" xlink:href="#g20"/><use y="11101" xlink:href="#g21"/><use y="11118" xlink:href="#g22"/><use y="11135" xlink:href="#g23"/><use y="11152" xlink:href="#g24"/><rect class="foreground" height="17" width="8" x="120" y="11186"/><use y="11186" xlink:href="#g15"/></g><g><use y="11322" xlink:href="#g16"/><use y="11339" xlink:href="#g17"/><use y="11356" xlink:href="#g18"/><use y="11373" xlink:href="#g19"/><use y="11390" xlink:href="#g20"/><use y="11407" xlink:href="#g21"/><use y="11424" xlink:href="#g22"/><use y="11441" xlink:href="#g23"/><use y="11458" xlink:href="#g24"/><use y="11492" xlink:href="#g16"/><rect class="foreground" height="17" width="8" x="0" y="11509"/><use y="11509" xlink:href="#g1"/></g><g><use y="11628" xlink:href="#g16"/><use y="11645" xlink:href="#g17"/><use y="11662" xlink:href="#g18"/><use y="11679" xlink:href="#g19"/><use y="11696" xlink:href="#g20"/><use y="11713" xlink:href="#g21"/><use y="11730" xlink:href="#g22"/><use y="11747" xlink:href="#g23"/><use y="11764" xlink:href="#g24"/><use y="11798" xlink:href="#g16"/><use y="11815" xlink:href="#g17"/><rect class="foreground" height="17" width="8" x="0" y="11832"/><use y="11832" xlink:href="#g1"/></g><g><use y="11934" xlink:href="#g16"/><use y="11951" xlink:href="#g17"/><use y="11968" xlink:href="#g18"/><use y="11985" xlink:href="#g19"/><use y="12002" xlink:href="#g20"/><use y="12019" xlink:href="#g21"/><use y="12036" xlink:href="#g22"/><use y="12053" xlink:href="#g23"/><use y="12070" xlink:href="#g24"/><use y="12104" xlink:href="#g16"/><use y="12121" xlink:href="#g17"/><use y="12138" xlink:href="#g25"/><rect class="foreground" height="17" width="8" x="0" y="12155"/><use y="12155" xlink:href="#g1"/></g><g><use y="12240" xlink:href="#g16"/><use y="12257" xlink:href="#g17"/><use y="12274" xlink:href="#g18"/><use y="12291" xlink:href="#g19"/><use y="12308" xlink:href="#g20"/><use y="12325" xlink:href="#g21"/><use y="12342" xlink:href="#g22"/><use y="12359" xlink:href="#g23"/><use y="12376" xlink:href="#g24"/><use y="12410" xlink:href="#g16"/><use y="12427" xlink:href="#g17"/><use y="12444" xlink:href="#g25"/><use y="12461" xlink:href="#g24"/><rect class="foreground" height="17" width="8" x="0" y="12478"/><use y="12478" xlink:href="#g1"/></g></g></svg>
</svg>
