<svg xmlns="http://www.w3.org/2000/svg" xmlns:xlink="http://www.w3.org/1999/xlink" id="terminal" baseProfile="full" viewBox="0 0 687 472" width="687" version="1.1">
    <defs>
        <style type="text/css" id="generated-style"><![CDATA[#screen {
                font-family: 'DejaVu Sans Mono', monospace;
                font-style: normal;
                font-size: 14px;
            }

        text {
            dominant-baseline: text-before-edge;
            white-space: pre;
        }

            :root {
                --animation-duration: 19406ms;
            }

            @keyframes roll {
                0.000%{transform:translateY(0px)}
0.052%{transform:translateY(-408px)}
7.018%{transform:translateY(-816px)}
7.348%{transform:translateY(-1224px)}
8.193%{transform:translateY(-1632px)}
8.724%{transform:translateY(-2040px)}
8.915%{transform:translateY(-2448px)}
9.698%{transform:translateY(-2856px)}
9.904%{transform:translateY(-3264px)}
10.306%{transform:translateY(-3672px)}
10.718%{transform:translateY(-4080px)}
11.028%{transform:translateY(-4488px)}
11.357%{transform:translateY(-4896px)}
11.873%{transform:translateY(-5304px)}
12.110%{transform:translateY(-5712px)}
12.388%{transform:translateY(-6120px)}
16.948%{transform:translateY(-6528px)}
17.263%{transform:translateY(-6936px)}
17.814%{transform:translateY(-7344px)}
19.618%{transform:translateY(-7752px)}
20.097%{transform:translateY(-8160px)}
21.127%{transform:translateY(-8568px)}
23.704%{transform:translateY(-8976px)}
27.826%{transform:translateY(-9384px)}
28.857%{transform:translateY(-9792px)}
29.115%{transform:translateY(-10200px)}
29.424%{transform:translateY(-10608px)}
33.108%{transform:translateY(-11016px)}
34.659%{transform:translateY(-11424px)}
35.504%{transform:translateY(-11832px)}
36.035%{transform:translateY(-12240px)}
36.226%{transform:translateY(-12648px)}
37.009%{transform:translateY(-13056px)}
37.215%{transform:translateY(-13464px)}
37.617%{transform:translateY(-13872px)}
38.029%{transform:translateY(-14280px)}
38.339%{transform:translateY(-14688px)}
38.668%{transform:translateY(-15096px)}
39.184%{transform:translateY(-15504px)}
39.421%{transform:translateY(-15912px)}
39.699%{transform:translateY(-16320px)}
46.383%{transform:translateY(-16728px)}
46.388%{transform:translateY(-17136px)}
48.062%{transform:translateY(-17544px)}
48.470%{transform:translateY(-17952px)}
100.000%{transform:translateY(-17952px)}
            }

            #screen_view {
                animation-duration: 19406ms;
                animation-iteration-count:infinite;
                animation-name:roll;
                animation-timing-function: steps(1,end);
                animation-fill-mode: forwards;
            }
        ]]></style>
        <style type="text/css" id="user-style">
            .foreground {fill: #f8f8f2}
            .background {fill: #272822}
            .color0 {fill: #272822}
            .color1 {fill: #f92672}
            .color2 {fill: #a6e22e}
            .color3 {fill: #f4bf75}
            .color4 {fill: #66d9ef}
            .color5 {fill: #ae81ff}
            .color6 {fill: #a1efe4}
            .color7 {fill: #f8f8f2}
            .color8 {fill: #75715e}
            .color9 {fill: #fd971f}
            .color10 {fill: #383830}
            .color11 {fill: #49483e}
            .color12 {fill: #a59f85}
            .color13 {fill: #f5f4f1}
            .color14 {fill: #cc6633}
            .color15 {fill: #f9f8f5}
        </style>
    </defs>
    <rect id="terminalui" class="background" width="100%" height="100%" ry="4.5826941"/>
    <circle cx="24" cy="23" r="7" class="color1"/>
    <circle cx="44" cy="23" r="7" class="color3"/>
    <circle cx="64" cy="23" r="7" class="color2"/>
    <svg id="screen" width="640" height="391" x="23" y="50" viewBox="0 0 640 391" preserveAspectRatio="xMidYMin slice">
        <rect class="background" height="100%" width="100%" x="0" y="0"/><defs><g id="g1"><text class="background" textLength="8" x="0"> </text></g><g id="g2"><text class="color2" textLength="8" x="0">&gt;</text><text class="foreground" textLength="8" x="8"> </text><text class="background" textLength="8" x="16"> </text></g><g id="g3"><text class="color2" textLength="8" x="0">&gt;</text><text class="foreground" textLength="16" x="8"> n</text><text class="background" textLength="8" x="24"> </text></g><g id="g4"><text class="color2" textLength="8" x="0">&gt;</text><text class="foreground" textLength="24" x="8"> no</text><text class="background" textLength="8" x="32"> </text></g><g id="g5"><text class="color2" textLength="8" x="0">&gt;</text><text class="foreground" textLength="32" x="8"> nod</text><text class="background" textLength="8" x="40"> </text></g><g id="g6"><text class="color2" textLength="8" x="0">&gt;</text><text class="foreground" textLength="40" x="8"> node</text><text class="background" textLength="8" x="48"> </text></g><g id="g7"><text class="color2" textLength="8" x="0">&gt;</text><text class="foreground" textLength="48" x="8"> node </text><text class="background" textLength="8" x="56"> </text></g><g id="g8"><text class="color2" textLength="8" x="0">&gt;</text><text class="foreground" textLength="56" x="8"> node s</text><text class="background" textLength="8" x="64"> </text></g><g id="g9"><text class="color2" textLength="8" x="0">&gt;</text><text class="foreground" textLength="64" x="8"> node se</text><text class="background" textLength="8" x="72"> </text></g><g id="g10"><text class="color2" textLength="8" x="0">&gt;</text><text class="foreground" textLength="72" x="8"> node ser</text><text class="background" textLength="8" x="80"> </text></g><g id="g11"><text class="color2" textLength="8" x="0">&gt;</text><text class="foreground" textLength="80" x="8"> node serv</text><text class="background" textLength="8" x="88"> </text></g><g id="g12"><text class="color2" textLength="8" x="0">&gt;</text><text class="foreground" textLength="88" x="8"> node serve</text><text class="background" textLength="8" x="96"> </text></g><g id="g13"><text class="color2" textLength="8" x="0">&gt;</text><text class="foreground" textLength="96" x="8"> node server</text><text class="background" textLength="8" x="104"> </text></g><g id="g14"><text class="color2" textLength="8" x="0">&gt;</text><text class="foreground" textLength="104" x="8"> node server.</text><text class="background" textLength="8" x="112"> </text></g><g id="g15"><text class="color2" textLength="8" x="0">&gt;</text><text class="foreground" textLength="112" x="8"> node server.j</text><text class="background" textLength="8" x="120"> </text></g><g id="g16"><text class="color2" textLength="8" x="0">&gt;</text><text class="foreground" textLength="120" x="8"> node server.js</text></g><g id="g17"><text class="foreground" textLength="152" x="0">Postgres Differ :: </text><text class="color2" textLength="96" x="152">Sync started</text></g><g id="g18"><text class="foreground" textLength="152" x="0">Postgres Differ :: </text><text class="color2" textLength="240" x="152">Current version PostgreSQL: 11</text></g><g id="g19"><text class="foreground" textLength="168" x="0">Postgres Differ :: [ </text><text class="color2" textLength="72" x="168">Sequences</text><text class="foreground" textLength="112" x="240"> ] updating...</text></g><g id="g20"><text class="foreground" textLength="640" x="0">create sequence public.blogs_id_seq start 1 increment 1 cycle maxvalue 10000 min</text></g><g id="g21"><text class="foreground" textLength="64" x="0">value 1;</text></g><g id="g22"><text class="foreground" textLength="168" x="0">Postgres Differ :: [ </text><text class="color2" textLength="72" x="168">Sequences</text><text class="foreground" textLength="184" x="240"> ] updated successfully</text></g><g id="g23"><text class="foreground" textLength="168" x="0">Postgres Differ :: [ </text><text class="color2" textLength="48" x="168">Tables</text><text class="foreground" textLength="112" x="216"> ] updating...</text></g><g id="g24"><text class="foreground" textLength="456" x="0">alter table public.users alter column age set default 16;</text></g><g id="g25"><text class="foreground" textLength="560" x="0">alter table public.users alter column age type character varying(255);</text></g><g id="g26"><text class="foreground" textLength="448" x="0">alter table public.users add column parent integer null;</text></g><g id="g27"><text class="foreground" textLength="216" x="0">create table public.blogs (</text></g><g id="g28"><text class="foreground" textLength="584" x="0">  id bigint default nextval('public.blogs_id_seq'::regclass) primary key,</text></g><g id="g29"><text class="foreground" textLength="160" x="0">  maker bigint null,</text></g><g id="g30"><text class="foreground" textLength="496" x="0">  body json default '{"1":"some value","2":"some value"}' null</text></g><g id="g31"><text class="foreground" textLength="16" x="0">);</text></g><g id="g32"><text class="foreground" textLength="168" x="0">Postgres Differ :: [ </text><text class="color2" textLength="48" x="168">Tables</text><text class="foreground" textLength="184" x="216"> ] updated successfully</text></g><g id="g33"><text class="foreground" textLength="152" x="0">Postgres Differ :: </text><text class="color2" textLength="128" x="152">Sync successful!</text></g><g id="g34"><text class="foreground" textLength="400" x="0">Postgres Differ :: Database does not need updating</text></g></defs><g id="screen_view"><g><rect class="foreground" height="17" width="8" x="0" y="0"/><use y="0" xlink:href="#g1"/></g><g><rect class="foreground" height="17" width="8" x="16" y="408"/><use y="408" xlink:href="#g2"/></g><g><rect class="foreground" height="17" width="8" x="24" y="816"/><use y="816" xlink:href="#g3"/></g><g><rect class="foreground" height="17" width="8" x="32" y="1224"/><use y="1224" xlink:href="#g4"/></g><g><rect class="foreground" height="17" width="8" x="40" y="1632"/><use y="1632" xlink:href="#g5"/></g><g><rect class="foreground" height="17" width="8" x="48" y="2040"/><use y="2040" xlink:href="#g6"/></g><g><rect class="foreground" height="17" width="8" x="56" y="2448"/><use y="2448" xlink:href="#g7"/></g><g><rect class="foreground" height="17" width="8" x="64" y="2856"/><use y="2856" xlink:href="#g8"/></g><g><rect class="foreground" height="17" width="8" x="72" y="3264"/><use y="3264" xlink:href="#g9"/></g><g><rect class="foreground" height="17" width="8" x="80" y="3672"/><use y="3672" xlink:href="#g10"/></g><g><rect class="foreground" height="17" width="8" x="88" y="4080"/><use y="4080" xlink:href="#g11"/></g><g><rect class="foreground" height="17" width="8" x="96" y="4488"/><use y="4488" xlink:href="#g12"/></g><g><rect class="foreground" height="17" width="8" x="104" y="4896"/><use y="4896" xlink:href="#g13"/></g><g><rect class="foreground" height="17" width="8" x="112" y="5304"/><use y="5304" xlink:href="#g14"/></g><g><rect class="foreground" height="17" width="8" x="120" y="5712"/><use y="5712" xlink:href="#g15"/></g><g><use y="6120" xlink:href="#g16"/><rect class="foreground" height="17" width="8" x="0" y="6137"/><use y="6137" xlink:href="#g1"/></g><g><use y="6528" xlink:href="#g16"/><use y="6545" xlink:href="#g17"/><rect class="foreground" height="17" width="8" x="0" y="6562"/><use y="6562" xlink:href="#g1"/></g><g><use y="6936" xlink:href="#g16"/><use y="6953" xlink:href="#g17"/><use y="6970" xlink:href="#g18"/><rect class="foreground" height="17" width="8" x="0" y="6987"/><use y="6987" xlink:href="#g1"/></g><g><use y="7344" xlink:href="#g16"/><use y="7361" xlink:href="#g17"/><use y="7378" xlink:href="#g18"/><use y="7395" xlink:href="#g19"/><rect class="foreground" height="17" width="8" x="0" y="7412"/><use y="7412" xlink:href="#g1"/></g><g><use y="7752" xlink:href="#g16"/><use y="7769" xlink:href="#g17"/><use y="7786" xlink:href="#g18"/><use y="7803" xlink:href="#g19"/><use y="7820" xlink:href="#g20"/><use y="7837" xlink:href="#g21"/><rect class="foreground" height="17" width="8" x="0" y="7854"/><use y="7854" xlink:href="#g1"/></g><g><use y="8160" xlink:href="#g16"/><use y="8177" xlink:href="#g17"/><use y="8194" xlink:href="#g18"/><use y="8211" xlink:href="#g19"/><use y="8228" xlink:href="#g20"/><use y="8245" xlink:href="#g21"/><use y="8262" xlink:href="#g22"/><rect class="foreground" height="17" width="8" x="0" y="8279"/><use y="8279" xlink:href="#g1"/></g><g><use y="8568" xlink:href="#g16"/><use y="8585" xlink:href="#g17"/><use y="8602" xlink:href="#g18"/><use y="8619" xlink:href="#g19"/><use y="8636" xlink:href="#g20"/><use y="8653" xlink:href="#g21"/><use y="8670" xlink:href="#g22"/><use y="8687" xlink:href="#g23"/><rect class="foreground" height="17" width="8" x="0" y="8704"/><use y="8704" xlink:href="#g1"/></g><g><use y="8976" xlink:href="#g16"/><use y="8993" xlink:href="#g17"/><use y="9010" xlink:href="#g18"/><use y="9027" xlink:href="#g19"/><use y="9044" xlink:href="#g20"/><use y="9061" xlink:href="#g21"/><use y="9078" xlink:href="#g22"/><use y="9095" xlink:href="#g23"/><use y="9112" xlink:href="#g24"/><use y="9129" xlink:href="#g25"/><use y="9146" xlink:href="#g26"/><rect class="foreground" height="17" width="8" x="0" y="9163"/><use y="9163" xlink:href="#g1"/></g><g><use y="9384" xlink:href="#g16"/><use y="9401" xlink:href="#g17"/><use y="9418" xlink:href="#g18"/><use y="9435" xlink:href="#g19"/><use y="9452" xlink:href="#g20"/><use y="9469" xlink:href="#g21"/><use y="9486" xlink:href="#g22"/><use y="9503" xlink:href="#g23"/><use y="9520" xlink:href="#g24"/><use y="9537" xlink:href="#g25"/><use y="9554" xlink:href="#g26"/><use y="9571" xlink:href="#g27"/><use y="9588" xlink:href="#g28"/><use y="9605" xlink:href="#g29"/><use y="9622" xlink:href="#g30"/><use y="9639" xlink:href="#g31"/><rect class="foreground" height="17" width="8" x="0" y="9656"/><use y="9656" xlink:href="#g1"/></g><g><use y="9792" xlink:href="#g16"/><use y="9809" xlink:href="#g17"/><use y="9826" xlink:href="#g18"/><use y="9843" xlink:href="#g19"/><use y="9860" xlink:href="#g20"/><use y="9877" xlink:href="#g21"/><use y="9894" xlink:href="#g22"/><use y="9911" xlink:href="#g23"/><use y="9928" xlink:href="#g24"/><use y="9945" xlink:href="#g25"/><use y="9962" xlink:href="#g26"/><use y="9979" xlink:href="#g27"/><use y="9996" xlink:href="#g28"/><use y="10013" xlink:href="#g29"/><use y="10030" xlink:href="#g30"/><use y="10047" xlink:href="#g31"/><use y="10064" xlink:href="#g32"/><rect class="foreground" height="17" width="8" x="0" y="10081"/><use y="10081" xlink:href="#g1"/></g><g><use y="10200" xlink:href="#g16"/><use y="10217" xlink:href="#g17"/><use y="10234" xlink:href="#g18"/><use y="10251" xlink:href="#g19"/><use y="10268" xlink:href="#g20"/><use y="10285" xlink:href="#g21"/><use y="10302" xlink:href="#g22"/><use y="10319" xlink:href="#g23"/><use y="10336" xlink:href="#g24"/><use y="10353" xlink:href="#g25"/><use y="10370" xlink:href="#g26"/><use y="10387" xlink:href="#g27"/><use y="10404" xlink:href="#g28"/><use y="10421" xlink:href="#g29"/><use y="10438" xlink:href="#g30"/><use y="10455" xlink:href="#g31"/><use y="10472" xlink:href="#g32"/><use y="10489" xlink:href="#g33"/><rect class="foreground" height="17" width="8" x="0" y="10523"/><use y="10523" xlink:href="#g1"/></g><g><use y="10608" xlink:href="#g16"/><use y="10625" xlink:href="#g17"/><use y="10642" xlink:href="#g18"/><use y="10659" xlink:href="#g19"/><use y="10676" xlink:href="#g20"/><use y="10693" xlink:href="#g21"/><use y="10710" xlink:href="#g22"/><use y="10727" xlink:href="#g23"/><use y="10744" xlink:href="#g24"/><use y="10761" xlink:href="#g25"/><use y="10778" xlink:href="#g26"/><use y="10795" xlink:href="#g27"/><use y="10812" xlink:href="#g28"/><use y="10829" xlink:href="#g29"/><use y="10846" xlink:href="#g30"/><use y="10863" xlink:href="#g31"/><use y="10880" xlink:href="#g32"/><use y="10897" xlink:href="#g33"/><rect class="foreground" height="17" width="8" x="16" y="10931"/><use y="10931" xlink:href="#g2"/></g><g><use y="11016" xlink:href="#g16"/><use y="11033" xlink:href="#g17"/><use y="11050" xlink:href="#g18"/><use y="11067" xlink:href="#g19"/><use y="11084" xlink:href="#g20"/><use y="11101" xlink:href="#g21"/><use y="11118" xlink:href="#g22"/><use y="11135" xlink:href="#g23"/><use y="11152" xlink:href="#g24"/><use y="11169" xlink:href="#g25"/><use y="11186" xlink:href="#g26"/><use y="11203" xlink:href="#g27"/><use y="11220" xlink:href="#g28"/><use y="11237" xlink:href="#g29"/><use y="11254" xlink:href="#g30"/><use y="11271" xlink:href="#g31"/><use y="11288" xlink:href="#g32"/><use y="11305" xlink:href="#g33"/><rect class="foreground" height="17" width="8" x="24" y="11339"/><use y="11339" xlink:href="#g3"/></g><g><use y="11424" xlink:href="#g16"/><use y="11441" xlink:href="#g17"/><use y="11458" xlink:href="#g18"/><use y="11475" xlink:href="#g19"/><use y="11492" xlink:href="#g20"/><use y="11509" xlink:href="#g21"/><use y="11526" xlink:href="#g22"/><use y="11543" xlink:href="#g23"/><use y="11560" xlink:href="#g24"/><use y="11577" xlink:href="#g25"/><use y="11594" xlink:href="#g26"/><use y="11611" xlink:href="#g27"/><use y="11628" xlink:href="#g28"/><use y="11645" xlink:href="#g29"/><use y="11662" xlink:href="#g30"/><use y="11679" xlink:href="#g31"/><use y="11696" xlink:href="#g32"/><use y="11713" xlink:href="#g33"/><rect class="foreground" height="17" width="8" x="32" y="11747"/><use y="11747" xlink:href="#g4"/></g><g><use y="11832" xlink:href="#g16"/><use y="11849" xlink:href="#g17"/><use y="11866" xlink:href="#g18"/><use y="11883" xlink:href="#g19"/><use y="11900" xlink:href="#g20"/><use y="11917" xlink:href="#g21"/><use y="11934" xlink:href="#g22"/><use y="11951" xlink:href="#g23"/><use y="11968" xlink:href="#g24"/><use y="11985" xlink:href="#g25"/><use y="12002" xlink:href="#g26"/><use y="12019" xlink:href="#g27"/><use y="12036" xlink:href="#g28"/><use y="12053" xlink:href="#g29"/><use y="12070" xlink:href="#g30"/><use y="12087" xlink:href="#g31"/><use y="12104" xlink:href="#g32"/><use y="12121" xlink:href="#g33"/><rect class="foreground" height="17" width="8" x="40" y="12155"/><use y="12155" xlink:href="#g5"/></g><g><use y="12240" xlink:href="#g16"/><use y="12257" xlink:href="#g17"/><use y="12274" xlink:href="#g18"/><use y="12291" xlink:href="#g19"/><use y="12308" xlink:href="#g20"/><use y="12325" xlink:href="#g21"/><use y="12342" xlink:href="#g22"/><use y="12359" xlink:href="#g23"/><use y="12376" xlink:href="#g24"/><use y="12393" xlink:href="#g25"/><use y="12410" xlink:href="#g26"/><use y="12427" xlink:href="#g27"/><use y="12444" xlink:href="#g28"/><use y="12461" xlink:href="#g29"/><use y="12478" xlink:href="#g30"/><use y="12495" xlink:href="#g31"/><use y="12512" xlink:href="#g32"/><use y="12529" xlink:href="#g33"/><rect class="foreground" height="17" width="8" x="48" y="12563"/><use y="12563" xlink:href="#g6"/></g><g><use y="12648" xlink:href="#g16"/><use y="12665" xlink:href="#g17"/><use y="12682" xlink:href="#g18"/><use y="12699" xlink:href="#g19"/><use y="12716" xlink:href="#g20"/><use y="12733" xlink:href="#g21"/><use y="12750" xlink:href="#g22"/><use y="12767" xlink:href="#g23"/><use y="12784" xlink:href="#g24"/><use y="12801" xlink:href="#g25"/><use y="12818" xlink:href="#g26"/><use y="12835" xlink:href="#g27"/><use y="12852" xlink:href="#g28"/><use y="12869" xlink:href="#g29"/><use y="12886" xlink:href="#g30"/><use y="12903" xlink:href="#g31"/><use y="12920" xlink:href="#g32"/><use y="12937" xlink:href="#g33"/><rect class="foreground" height="17" width="8" x="56" y="12971"/><use y="12971" xlink:href="#g7"/></g><g><use y="13056" xlink:href="#g16"/><use y="13073" xlink:href="#g17"/><use y="13090" xlink:href="#g18"/><use y="13107" xlink:href="#g19"/><use y="13124" xlink:href="#g20"/><use y="13141" xlink:href="#g21"/><use y="13158" xlink:href="#g22"/><use y="13175" xlink:href="#g23"/><use y="13192" xlink:href="#g24"/><use y="13209" xlink:href="#g25"/><use y="13226" xlink:href="#g26"/><use y="13243" xlink:href="#g27"/><use y="13260" xlink:href="#g28"/><use y="13277" xlink:href="#g29"/><use y="13294" xlink:href="#g30"/><use y="13311" xlink:href="#g31"/><use y="13328" xlink:href="#g32"/><use y="13345" xlink:href="#g33"/><rect class="foreground" height="17" width="8" x="64" y="13379"/><use y="13379" xlink:href="#g8"/></g><g><use y="13464" xlink:href="#g16"/><use y="13481" xlink:href="#g17"/><use y="13498" xlink:href="#g18"/><use y="13515" xlink:href="#g19"/><use y="13532" xlink:href="#g20"/><use y="13549" xlink:href="#g21"/><use y="13566" xlink:href="#g22"/><use y="13583" xlink:href="#g23"/><use y="13600" xlink:href="#g24"/><use y="13617" xlink:href="#g25"/><use y="13634" xlink:href="#g26"/><use y="13651" xlink:href="#g27"/><use y="13668" xlink:href="#g28"/><use y="13685" xlink:href="#g29"/><use y="13702" xlink:href="#g30"/><use y="13719" xlink:href="#g31"/><use y="13736" xlink:href="#g32"/><use y="13753" xlink:href="#g33"/><rect class="foreground" height="17" width="8" x="72" y="13787"/><use y="13787" xlink:href="#g9"/></g><g><use y="13872" xlink:href="#g16"/><use y="13889" xlink:href="#g17"/><use y="13906" xlink:href="#g18"/><use y="13923" xlink:href="#g19"/><use y="13940" xlink:href="#g20"/><use y="13957" xlink:href="#g21"/><use y="13974" xlink:href="#g22"/><use y="13991" xlink:href="#g23"/><use y="14008" xlink:href="#g24"/><use y="14025" xlink:href="#g25"/><use y="14042" xlink:href="#g26"/><use y="14059" xlink:href="#g27"/><use y="14076" xlink:href="#g28"/><use y="14093" xlink:href="#g29"/><use y="14110" xlink:href="#g30"/><use y="14127" xlink:href="#g31"/><use y="14144" xlink:href="#g32"/><use y="14161" xlink:href="#g33"/><rect class="foreground" height="17" width="8" x="80" y="14195"/><use y="14195" xlink:href="#g10"/></g><g><use y="14280" xlink:href="#g16"/><use y="14297" xlink:href="#g17"/><use y="14314" xlink:href="#g18"/><use y="14331" xlink:href="#g19"/><use y="14348" xlink:href="#g20"/><use y="14365" xlink:href="#g21"/><use y="14382" xlink:href="#g22"/><use y="14399" xlink:href="#g23"/><use y="14416" xlink:href="#g24"/><use y="14433" xlink:href="#g25"/><use y="14450" xlink:href="#g26"/><use y="14467" xlink:href="#g27"/><use y="14484" xlink:href="#g28"/><use y="14501" xlink:href="#g29"/><use y="14518" xlink:href="#g30"/><use y="14535" xlink:href="#g31"/><use y="14552" xlink:href="#g32"/><use y="14569" xlink:href="#g33"/><rect class="foreground" height="17" width="8" x="88" y="14603"/><use y="14603" xlink:href="#g11"/></g><g><use y="14688" xlink:href="#g16"/><use y="14705" xlink:href="#g17"/><use y="14722" xlink:href="#g18"/><use y="14739" xlink:href="#g19"/><use y="14756" xlink:href="#g20"/><use y="14773" xlink:href="#g21"/><use y="14790" xlink:href="#g22"/><use y="14807" xlink:href="#g23"/><use y="14824" xlink:href="#g24"/><use y="14841" xlink:href="#g25"/><use y="14858" xlink:href="#g26"/><use y="14875" xlink:href="#g27"/><use y="14892" xlink:href="#g28"/><use y="14909" xlink:href="#g29"/><use y="14926" xlink:href="#g30"/><use y="14943" xlink:href="#g31"/><use y="14960" xlink:href="#g32"/><use y="14977" xlink:href="#g33"/><rect class="foreground" height="17" width="8" x="96" y="15011"/><use y="15011" xlink:href="#g12"/></g><g><use y="15096" xlink:href="#g16"/><use y="15113" xlink:href="#g17"/><use y="15130" xlink:href="#g18"/><use y="15147" xlink:href="#g19"/><use y="15164" xlink:href="#g20"/><use y="15181" xlink:href="#g21"/><use y="15198" xlink:href="#g22"/><use y="15215" xlink:href="#g23"/><use y="15232" xlink:href="#g24"/><use y="15249" xlink:href="#g25"/><use y="15266" xlink:href="#g26"/><use y="15283" xlink:href="#g27"/><use y="15300" xlink:href="#g28"/><use y="15317" xlink:href="#g29"/><use y="15334" xlink:href="#g30"/><use y="15351" xlink:href="#g31"/><use y="15368" xlink:href="#g32"/><use y="15385" xlink:href="#g33"/><rect class="foreground" height="17" width="8" x="104" y="15419"/><use y="15419" xlink:href="#g13"/></g><g><use y="15504" xlink:href="#g16"/><use y="15521" xlink:href="#g17"/><use y="15538" xlink:href="#g18"/><use y="15555" xlink:href="#g19"/><use y="15572" xlink:href="#g20"/><use y="15589" xlink:href="#g21"/><use y="15606" xlink:href="#g22"/><use y="15623" xlink:href="#g23"/><use y="15640" xlink:href="#g24"/><use y="15657" xlink:href="#g25"/><use y="15674" xlink:href="#g26"/><use y="15691" xlink:href="#g27"/><use y="15708" xlink:href="#g28"/><use y="15725" xlink:href="#g29"/><use y="15742" xlink:href="#g30"/><use y="15759" xlink:href="#g31"/><use y="15776" xlink:href="#g32"/><use y="15793" xlink:href="#g33"/><rect class="foreground" height="17" width="8" x="112" y="15827"/><use y="15827" xlink:href="#g14"/></g><g><use y="15912" xlink:href="#g16"/><use y="15929" xlink:href="#g17"/><use y="15946" xlink:href="#g18"/><use y="15963" xlink:href="#g19"/><use y="15980" xlink:href="#g20"/><use y="15997" xlink:href="#g21"/><use y="16014" xlink:href="#g22"/><use y="16031" xlink:href="#g23"/><use y="16048" xlink:href="#g24"/><use y="16065" xlink:href="#g25"/><use y="16082" xlink:href="#g26"/><use y="16099" xlink:href="#g27"/><use y="16116" xlink:href="#g28"/><use y="16133" xlink:href="#g29"/><use y="16150" xlink:href="#g30"/><use y="16167" xlink:href="#g31"/><use y="16184" xlink:href="#g32"/><use y="16201" xlink:href="#g33"/><rect class="foreground" height="17" width="8" x="120" y="16235"/><use y="16235" xlink:href="#g15"/></g><g><use y="16320" xlink:href="#g16"/><use y="16337" xlink:href="#g17"/><use y="16354" xlink:href="#g18"/><use y="16371" xlink:href="#g19"/><use y="16388" xlink:href="#g20"/><use y="16405" xlink:href="#g21"/><use y="16422" xlink:href="#g22"/><use y="16439" xlink:href="#g23"/><use y="16456" xlink:href="#g24"/><use y="16473" xlink:href="#g25"/><use y="16490" xlink:href="#g26"/><use y="16507" xlink:href="#g27"/><use y="16524" xlink:href="#g28"/><use y="16541" xlink:href="#g29"/><use y="16558" xlink:href="#g30"/><use y="16575" xlink:href="#g31"/><use y="16592" xlink:href="#g32"/><use y="16609" xlink:href="#g33"/><use y="16643" xlink:href="#g16"/><rect class="foreground" height="17" width="8" x="0" y="16660"/><use y="16660" xlink:href="#g1"/></g><g><use y="16728" xlink:href="#g16"/><use y="16745" xlink:href="#g17"/><use y="16762" xlink:href="#g18"/><use y="16779" xlink:href="#g19"/><use y="16796" xlink:href="#g20"/><use y="16813" xlink:href="#g21"/><use y="16830" xlink:href="#g22"/><use y="16847" xlink:href="#g23"/><use y="16864" xlink:href="#g24"/><use y="16881" xlink:href="#g25"/><use y="16898" xlink:href="#g26"/><use y="16915" xlink:href="#g27"/><use y="16932" xlink:href="#g28"/><use y="16949" xlink:href="#g29"/><use y="16966" xlink:href="#g30"/><use y="16983" xlink:href="#g31"/><use y="17000" xlink:href="#g32"/><use y="17017" xlink:href="#g33"/><use y="17051" xlink:href="#g16"/><use y="17068" xlink:href="#g17"/><rect class="foreground" height="17" width="8" x="0" y="17085"/><use y="17085" xlink:href="#g1"/></g><g><use y="17136" xlink:href="#g16"/><use y="17153" xlink:href="#g17"/><use y="17170" xlink:href="#g18"/><use y="17187" xlink:href="#g19"/><use y="17204" xlink:href="#g20"/><use y="17221" xlink:href="#g21"/><use y="17238" xlink:href="#g22"/><use y="17255" xlink:href="#g23"/><use y="17272" xlink:href="#g24"/><use y="17289" xlink:href="#g25"/><use y="17306" xlink:href="#g26"/><use y="17323" xlink:href="#g27"/><use y="17340" xlink:href="#g28"/><use y="17357" xlink:href="#g29"/><use y="17374" xlink:href="#g30"/><use y="17391" xlink:href="#g31"/><use y="17408" xlink:href="#g32"/><use y="17425" xlink:href="#g33"/><use y="17459" xlink:href="#g16"/><use y="17476" xlink:href="#g17"/><use y="17493" xlink:href="#g18"/><rect class="foreground" height="17" width="8" x="0" y="17510"/><use y="17510" xlink:href="#g1"/></g><g><use y="17544" xlink:href="#g17"/><use y="17561" xlink:href="#g18"/><use y="17578" xlink:href="#g19"/><use y="17595" xlink:href="#g20"/><use y="17612" xlink:href="#g21"/><use y="17629" xlink:href="#g22"/><use y="17646" xlink:href="#g23"/><use y="17663" xlink:href="#g24"/><use y="17680" xlink:href="#g25"/><use y="17697" xlink:href="#g26"/><use y="17714" xlink:href="#g27"/><use y="17731" xlink:href="#g28"/><use y="17748" xlink:href="#g29"/><use y="17765" xlink:href="#g30"/><use y="17782" xlink:href="#g31"/><use y="17799" xlink:href="#g32"/><use y="17816" xlink:href="#g33"/><use y="17850" xlink:href="#g16"/><use y="17867" xlink:href="#g17"/><use y="17884" xlink:href="#g18"/><use y="17901" xlink:href="#g34"/><rect class="foreground" height="17" width="8" x="0" y="17918"/><use y="17918" xlink:href="#g1"/></g><g><use y="17952" xlink:href="#g18"/><use y="17969" xlink:href="#g19"/><use y="17986" xlink:href="#g20"/><use y="18003" xlink:href="#g21"/><use y="18020" xlink:href="#g22"/><use y="18037" xlink:href="#g23"/><use y="18054" xlink:href="#g24"/><use y="18071" xlink:href="#g25"/><use y="18088" xlink:href="#g26"/><use y="18105" xlink:href="#g27"/><use y="18122" xlink:href="#g28"/><use y="18139" xlink:href="#g29"/><use y="18156" xlink:href="#g30"/><use y="18173" xlink:href="#g31"/><use y="18190" xlink:href="#g32"/><use y="18207" xlink:href="#g33"/><use y="18241" xlink:href="#g16"/><use y="18258" xlink:href="#g17"/><use y="18275" xlink:href="#g18"/><use y="18292" xlink:href="#g34"/><use y="18309" xlink:href="#g33"/><rect class="foreground" height="17" width="8" x="0" y="18326"/><use y="18326" xlink:href="#g1"/></g></g></svg>
</svg>
