<svg xmlns="http://www.w3.org/2000/svg" xmlns:xlink="http://www.w3.org/1999/xlink" id="terminal" baseProfile="full" viewBox="0 0 687 506" width="687" version="1.1">
    <defs>
        <termtosvg:template_settings xmlns:termtosvg="https://github.com/nbedos/termtosvg">
            <termtosvg:screen_geometry columns="80" rows="25"/>
            <termtosvg:animation type="css"/>
        </termtosvg:template_settings>
        <style type="text/css" id="generated-style"><![CDATA[#screen {
                font-family: 'DejaVu Sans Mono', monospace;
                font-style: normal;
                font-size: 14px;
            }

        text {
            dominant-baseline: text-before-edge;
            white-space: pre;
        }
    
            :root {
                --animation-duration: 19106ms;
            }

            @keyframes roll {
                0.000%{transform:translateY(0px)}
0.052%{transform:translateY(-442px)}
7.129%{transform:translateY(-884px)}
7.464%{transform:translateY(-1326px)}
8.322%{transform:translateY(-1768px)}
8.861%{transform:translateY(-2210px)}
9.055%{transform:translateY(-2652px)}
9.850%{transform:translateY(-3094px)}
10.060%{transform:translateY(-3536px)}
10.468%{transform:translateY(-3978px)}
10.887%{transform:translateY(-4420px)}
11.201%{transform:translateY(-4862px)}
11.536%{transform:translateY(-5304px)}
12.059%{transform:translateY(-5746px)}
12.300%{transform:translateY(-6188px)}
12.582%{transform:translateY(-6630px)}
17.214%{transform:translateY(-7072px)}
17.534%{transform:translateY(-7514px)}
18.094%{transform:translateY(-7956px)}
19.926%{transform:translateY(-8398px)}
20.412%{transform:translateY(-8840px)}
21.459%{transform:translateY(-9282px)}
24.076%{transform:translateY(-9724px)}
27.217%{transform:translateY(-10166px)}
28.263%{transform:translateY(-10608px)}
29.310%{transform:translateY(-11050px)}
29.572%{transform:translateY(-11492px)}
29.886%{transform:translateY(-11934px)}
37.815%{transform:translateY(-12376px)}
38.867%{transform:translateY(-12818px)}
39.726%{transform:translateY(-13260px)}
40.265%{transform:translateY(-13702px)}
40.458%{transform:translateY(-14144px)}
41.254%{transform:translateY(-14586px)}
41.463%{transform:translateY(-15028px)}
41.872%{transform:translateY(-15470px)}
42.290%{transform:translateY(-15912px)}
42.604%{transform:translateY(-16354px)}
42.939%{transform:translateY(-16796px)}
43.463%{transform:translateY(-17238px)}
43.704%{transform:translateY(-17680px)}
43.986%{transform:translateY(-18122px)}
45.541%{transform:translateY(-18564px)}
45.546%{transform:translateY(-19006px)}
47.247%{transform:translateY(-19448px)}
47.660%{transform:translateY(-19890px)}
100.000%{transform:translateY(-19890px)}
            }

            #screen_view {
                animation-duration: 19106ms;
                animation-iteration-count:infinite;
                animation-name:roll;
                animation-timing-function: steps(1,end);
                animation-fill-mode: forwards;
            }
        ]]></style>
        <style type="text/css" id="user-style">
            /* gjm8 color theme (source: https://terminal.sexy/) */
            .foreground {fill: #f8f8f2}
            .background {fill: #272822}
            .color0 {fill: #272822}
            .color1 {fill: #f92672}
            .color2 {fill: #a6e22e}
            .color3 {fill: #f4bf75}
            .color4 {fill: #66d9ef}
            .color5 {fill: #ae81ff}
            .color6 {fill: #a1efe4}
            .color7 {fill: #f8f8f2}
            .color8 {fill: #75715e}
            .color9 {fill: #fd971f}
            .color10 {fill: #383830}
            .color11 {fill: #49483e}
            .color12 {fill: #a59f85}
            .color13 {fill: #f5f4f1}
            .color14 {fill: #cc6633}
            .color15 {fill: #f9f8f5}
        </style>
    </defs>
    <rect id="terminalui" class="background" width="100%" height="100%" ry="4.5826941"/>
    <circle cx="24" cy="23" r="7" class="color1"/>
    <circle cx="44" cy="23" r="7" class="color3"/>
    <circle cx="64" cy="23" r="7" class="color2"/>
    <svg id="screen" width="640" height="425" x="23" y="50" viewBox="0 0 640 425" preserveAspectRatio="xMidYMin slice">
        <rect class="background" height="100%" width="100%" x="0" y="0"/><defs><g id="g1"><text class="background" textLength="8" x="0"> </text></g><g id="g2"><text class="color2" textLength="8" x="0">&gt;</text><text class="foreground" textLength="8" x="8"> </text><text class="background" textLength="8" x="16"> </text></g><g id="g3"><text class="color2" textLength="8" x="0">&gt;</text><text class="foreground" textLength="16" x="8"> n</text><text class="background" textLength="8" x="24"> </text></g><g id="g4"><text class="color2" textLength="8" x="0">&gt;</text><text class="foreground" textLength="24" x="8"> no</text><text class="background" textLength="8" x="32"> </text></g><g id="g5"><text class="color2" textLength="8" x="0">&gt;</text><text class="foreground" textLength="32" x="8"> nod</text><text class="background" textLength="8" x="40"> </text></g><g id="g6"><text class="color2" textLength="8" x="0">&gt;</text><text class="foreground" textLength="40" x="8"> node</text><text class="background" textLength="8" x="48"> </text></g><g id="g7"><text class="color2" textLength="8" x="0">&gt;</text><text class="foreground" textLength="48" x="8"> node </text><text class="background" textLength="8" x="56"> </text></g><g id="g8"><text class="color2" textLength="8" x="0">&gt;</text><text class="foreground" textLength="56" x="8"> node s</text><text class="background" textLength="8" x="64"> </text></g><g id="g9"><text class="color2" textLength="8" x="0">&gt;</text><text class="foreground" textLength="64" x="8"> node se</text><text class="background" textLength="8" x="72"> </text></g><g id="g10"><text class="color2" textLength="8" x="0">&gt;</text><text class="foreground" textLength="72" x="8"> node ser</text><text class="background" textLength="8" x="80"> </text></g><g id="g11"><text class="color2" textLength="8" x="0">&gt;</text><text class="foreground" textLength="80" x="8"> node serv</text><text class="background" textLength="8" x="88"> </text></g><g id="g12"><text class="color2" textLength="8" x="0">&gt;</text><text class="foreground" textLength="88" x="8"> node serve</text><text class="background" textLength="8" x="96"> </text></g><g id="g13"><text class="color2" textLength="8" x="0">&gt;</text><text class="foreground" textLength="96" x="8"> node server</text><text class="background" textLength="8" x="104"> </text></g><g id="g14"><text class="color2" textLength="8" x="0">&gt;</text><text class="foreground" textLength="104" x="8"> node server.</text><text class="background" textLength="8" x="112"> </text></g><g id="g15"><text class="color2" textLength="8" x="0">&gt;</text><text class="foreground" textLength="112" x="8"> node server.j</text><text class="background" textLength="8" x="120"> </text></g><g id="g16"><text class="color2" textLength="8" x="0">&gt;</text><text class="foreground" textLength="120" x="8"> node server.js</text></g><g id="g17"><text class="foreground" textLength="152" x="0">Postgres Differ :: </text><text class="color2" textLength="80" x="152">Sync start</text></g><g id="g18"><text class="foreground" textLength="152" x="0">Postgres Differ :: </text><text class="color2" textLength="240" x="152">Current version PostgreSQL: 11</text></g><g id="g19"><text class="foreground" textLength="240" x="0">Postgres Differ :: Start sync </text><text class="color2" textLength="72" x="240">sequences</text><text class="foreground" textLength="64" x="312"> with...</text></g><g id="g20"><text class="foreground" textLength="640" x="0">create sequence public.blogs_id_seq start 1 increment 1 cycle maxvalue 10000 min</text></g><g id="g21"><text class="foreground" textLength="64" x="0">value 1;</text></g><g id="g22"><text class="foreground" textLength="224" x="0">Postgres Differ :: End sync </text><text class="color2" textLength="72" x="224">sequences</text></g><g id="g23"><text class="foreground" textLength="240" x="0">Postgres Differ :: Start sync </text><text class="color2" textLength="48" x="240">tables</text><text class="foreground" textLength="64" x="288"> with...</text></g><g id="g24"><text class="foreground" textLength="456" x="0">alter table public.users alter column age set default 16;</text></g><g id="g25"><text class="foreground" textLength="560" x="0">alter table public.users alter column age type character varying(255);</text></g><g id="g26"><text class="foreground" textLength="448" x="0">alter table public.users add column parent integer null;</text></g><g id="g27"><text class="foreground" textLength="336" x="0">drop table if exists public.blogs cascade;</text></g><g id="g28"><text class="foreground" textLength="216" x="0">create table public.blogs (</text></g><g id="g29"><text class="foreground" textLength="584" x="0">  id bigint default nextval('public.blogs_id_seq'::regclass) primary key,</text></g><g id="g30"><text class="foreground" textLength="160" x="0">  maker bigint null,</text></g><g id="g31"><text class="foreground" textLength="496" x="0">  body json default '{"1":"some value","2":"some value"}' null</text></g><g id="g32"><text class="foreground" textLength="16" x="0">);</text></g><g id="g33"><text class="foreground" textLength="224" x="0">Postgres Differ :: End sync </text><text class="color2" textLength="48" x="224">tables</text></g><g id="g34"><text class="foreground" textLength="152" x="0">Postgres Differ :: </text><text class="color2" textLength="64" x="152">Sync end</text></g><g id="g35"><text class="foreground" textLength="504" x="0">Postgres Differ :: Tables do not need structure synchronization</text></g></defs><g id="screen_view"><g><rect class="foreground" height="17" width="8" x="0" y="0"/><use y="0" xlink:href="#g1"/></g><g><rect class="foreground" height="17" width="8" x="16" y="442"/><use y="442" xlink:href="#g2"/></g><g><rect class="foreground" height="17" width="8" x="24" y="884"/><use y="884" xlink:href="#g3"/></g><g><rect class="foreground" height="17" width="8" x="32" y="1326"/><use y="1326" xlink:href="#g4"/></g><g><rect class="foreground" height="17" width="8" x="40" y="1768"/><use y="1768" xlink:href="#g5"/></g><g><rect class="foreground" height="17" width="8" x="48" y="2210"/><use y="2210" xlink:href="#g6"/></g><g><rect class="foreground" height="17" width="8" x="56" y="2652"/><use y="2652" xlink:href="#g7"/></g><g><rect class="foreground" height="17" width="8" x="64" y="3094"/><use y="3094" xlink:href="#g8"/></g><g><rect class="foreground" height="17" width="8" x="72" y="3536"/><use y="3536" xlink:href="#g9"/></g><g><rect class="foreground" height="17" width="8" x="80" y="3978"/><use y="3978" xlink:href="#g10"/></g><g><rect class="foreground" height="17" width="8" x="88" y="4420"/><use y="4420" xlink:href="#g11"/></g><g><rect class="foreground" height="17" width="8" x="96" y="4862"/><use y="4862" xlink:href="#g12"/></g><g><rect class="foreground" height="17" width="8" x="104" y="5304"/><use y="5304" xlink:href="#g13"/></g><g><rect class="foreground" height="17" width="8" x="112" y="5746"/><use y="5746" xlink:href="#g14"/></g><g><rect class="foreground" height="17" width="8" x="120" y="6188"/><use y="6188" xlink:href="#g15"/></g><g><use y="6630" xlink:href="#g16"/><rect class="foreground" height="17" width="8" x="0" y="6647"/><use y="6647" xlink:href="#g1"/></g><g><use y="7072" xlink:href="#g16"/><use y="7089" xlink:href="#g17"/><rect class="foreground" height="17" width="8" x="0" y="7106"/><use y="7106" xlink:href="#g1"/></g><g><use y="7514" xlink:href="#g16"/><use y="7531" xlink:href="#g17"/><use y="7548" xlink:href="#g18"/><rect class="foreground" height="17" width="8" x="0" y="7565"/><use y="7565" xlink:href="#g1"/></g><g><use y="7956" xlink:href="#g16"/><use y="7973" xlink:href="#g17"/><use y="7990" xlink:href="#g18"/><use y="8007" xlink:href="#g19"/><rect class="foreground" height="17" width="8" x="0" y="8024"/><use y="8024" xlink:href="#g1"/></g><g><use y="8398" xlink:href="#g16"/><use y="8415" xlink:href="#g17"/><use y="8432" xlink:href="#g18"/><use y="8449" xlink:href="#g19"/><use y="8466" xlink:href="#g20"/><use y="8483" xlink:href="#g21"/><rect class="foreground" height="17" width="8" x="0" y="8500"/><use y="8500" xlink:href="#g1"/></g><g><use y="8840" xlink:href="#g16"/><use y="8857" xlink:href="#g17"/><use y="8874" xlink:href="#g18"/><use y="8891" xlink:href="#g19"/><use y="8908" xlink:href="#g20"/><use y="8925" xlink:href="#g21"/><use y="8942" xlink:href="#g22"/><rect class="foreground" height="17" width="8" x="0" y="8959"/><use y="8959" xlink:href="#g1"/></g><g><use y="9282" xlink:href="#g16"/><use y="9299" xlink:href="#g17"/><use y="9316" xlink:href="#g18"/><use y="9333" xlink:href="#g19"/><use y="9350" xlink:href="#g20"/><use y="9367" xlink:href="#g21"/><use y="9384" xlink:href="#g22"/><use y="9401" xlink:href="#g23"/><rect class="foreground" height="17" width="8" x="0" y="9418"/><use y="9418" xlink:href="#g1"/></g><g><use y="9724" xlink:href="#g16"/><use y="9741" xlink:href="#g17"/><use y="9758" xlink:href="#g18"/><use y="9775" xlink:href="#g19"/><use y="9792" xlink:href="#g20"/><use y="9809" xlink:href="#g21"/><use y="9826" xlink:href="#g22"/><use y="9843" xlink:href="#g23"/><use y="9860" xlink:href="#g24"/><use y="9877" xlink:href="#g25"/><use y="9894" xlink:href="#g26"/><rect class="foreground" height="17" width="8" x="0" y="9911"/><use y="9911" xlink:href="#g1"/></g><g><use y="10166" xlink:href="#g16"/><use y="10183" xlink:href="#g17"/><use y="10200" xlink:href="#g18"/><use y="10217" xlink:href="#g19"/><use y="10234" xlink:href="#g20"/><use y="10251" xlink:href="#g21"/><use y="10268" xlink:href="#g22"/><use y="10285" xlink:href="#g23"/><use y="10302" xlink:href="#g24"/><use y="10319" xlink:href="#g25"/><use y="10336" xlink:href="#g26"/><use y="10353" xlink:href="#g27"/><rect class="foreground" height="17" width="8" x="0" y="10370"/><use y="10370" xlink:href="#g1"/></g><g><use y="10608" xlink:href="#g16"/><use y="10625" xlink:href="#g17"/><use y="10642" xlink:href="#g18"/><use y="10659" xlink:href="#g19"/><use y="10676" xlink:href="#g20"/><use y="10693" xlink:href="#g21"/><use y="10710" xlink:href="#g22"/><use y="10727" xlink:href="#g23"/><use y="10744" xlink:href="#g24"/><use y="10761" xlink:href="#g25"/><use y="10778" xlink:href="#g26"/><use y="10795" xlink:href="#g27"/><use y="10812" xlink:href="#g28"/><use y="10829" xlink:href="#g29"/><use y="10846" xlink:href="#g30"/><use y="10863" xlink:href="#g31"/><use y="10880" xlink:href="#g32"/><rect class="foreground" height="17" width="8" x="0" y="10897"/><use y="10897" xlink:href="#g1"/></g><g><use y="11050" xlink:href="#g16"/><use y="11067" xlink:href="#g17"/><use y="11084" xlink:href="#g18"/><use y="11101" xlink:href="#g19"/><use y="11118" xlink:href="#g20"/><use y="11135" xlink:href="#g21"/><use y="11152" xlink:href="#g22"/><use y="11169" xlink:href="#g23"/><use y="11186" xlink:href="#g24"/><use y="11203" xlink:href="#g25"/><use y="11220" xlink:href="#g26"/><use y="11237" xlink:href="#g27"/><use y="11254" xlink:href="#g28"/><use y="11271" xlink:href="#g29"/><use y="11288" xlink:href="#g30"/><use y="11305" xlink:href="#g31"/><use y="11322" xlink:href="#g32"/><use y="11339" xlink:href="#g33"/><rect class="foreground" height="17" width="8" x="0" y="11356"/><use y="11356" xlink:href="#g1"/></g><g><use y="11492" xlink:href="#g16"/><use y="11509" xlink:href="#g17"/><use y="11526" xlink:href="#g18"/><use y="11543" xlink:href="#g19"/><use y="11560" xlink:href="#g20"/><use y="11577" xlink:href="#g21"/><use y="11594" xlink:href="#g22"/><use y="11611" xlink:href="#g23"/><use y="11628" xlink:href="#g24"/><use y="11645" xlink:href="#g25"/><use y="11662" xlink:href="#g26"/><use y="11679" xlink:href="#g27"/><use y="11696" xlink:href="#g28"/><use y="11713" xlink:href="#g29"/><use y="11730" xlink:href="#g30"/><use y="11747" xlink:href="#g31"/><use y="11764" xlink:href="#g32"/><use y="11781" xlink:href="#g33"/><use y="11798" xlink:href="#g34"/><rect class="foreground" height="17" width="8" x="0" y="11815"/><use y="11815" xlink:href="#g1"/></g><g><use y="11934" xlink:href="#g16"/><use y="11951" xlink:href="#g17"/><use y="11968" xlink:href="#g18"/><use y="11985" xlink:href="#g19"/><use y="12002" xlink:href="#g20"/><use y="12019" xlink:href="#g21"/><use y="12036" xlink:href="#g22"/><use y="12053" xlink:href="#g23"/><use y="12070" xlink:href="#g24"/><use y="12087" xlink:href="#g25"/><use y="12104" xlink:href="#g26"/><use y="12121" xlink:href="#g27"/><use y="12138" xlink:href="#g28"/><use y="12155" xlink:href="#g29"/><use y="12172" xlink:href="#g30"/><use y="12189" xlink:href="#g31"/><use y="12206" xlink:href="#g32"/><use y="12223" xlink:href="#g33"/><use y="12240" xlink:href="#g34"/><rect class="foreground" height="17" width="8" x="16" y="12257"/><use y="12257" xlink:href="#g2"/></g><g><use y="12376" xlink:href="#g16"/><use y="12393" xlink:href="#g17"/><use y="12410" xlink:href="#g18"/><use y="12427" xlink:href="#g19"/><use y="12444" xlink:href="#g20"/><use y="12461" xlink:href="#g21"/><use y="12478" xlink:href="#g22"/><use y="12495" xlink:href="#g23"/><use y="12512" xlink:href="#g24"/><use y="12529" xlink:href="#g25"/><use y="12546" xlink:href="#g26"/><use y="12563" xlink:href="#g27"/><use y="12580" xlink:href="#g28"/><use y="12597" xlink:href="#g29"/><use y="12614" xlink:href="#g30"/><use y="12631" xlink:href="#g31"/><use y="12648" xlink:href="#g32"/><use y="12665" xlink:href="#g33"/><use y="12682" xlink:href="#g34"/><rect class="foreground" height="17" width="8" x="24" y="12699"/><use y="12699" xlink:href="#g3"/></g><g><use y="12818" xlink:href="#g16"/><use y="12835" xlink:href="#g17"/><use y="12852" xlink:href="#g18"/><use y="12869" xlink:href="#g19"/><use y="12886" xlink:href="#g20"/><use y="12903" xlink:href="#g21"/><use y="12920" xlink:href="#g22"/><use y="12937" xlink:href="#g23"/><use y="12954" xlink:href="#g24"/><use y="12971" xlink:href="#g25"/><use y="12988" xlink:href="#g26"/><use y="13005" xlink:href="#g27"/><use y="13022" xlink:href="#g28"/><use y="13039" xlink:href="#g29"/><use y="13056" xlink:href="#g30"/><use y="13073" xlink:href="#g31"/><use y="13090" xlink:href="#g32"/><use y="13107" xlink:href="#g33"/><use y="13124" xlink:href="#g34"/><rect class="foreground" height="17" width="8" x="32" y="13141"/><use y="13141" xlink:href="#g4"/></g><g><use y="13260" xlink:href="#g16"/><use y="13277" xlink:href="#g17"/><use y="13294" xlink:href="#g18"/><use y="13311" xlink:href="#g19"/><use y="13328" xlink:href="#g20"/><use y="13345" xlink:href="#g21"/><use y="13362" xlink:href="#g22"/><use y="13379" xlink:href="#g23"/><use y="13396" xlink:href="#g24"/><use y="13413" xlink:href="#g25"/><use y="13430" xlink:href="#g26"/><use y="13447" xlink:href="#g27"/><use y="13464" xlink:href="#g28"/><use y="13481" xlink:href="#g29"/><use y="13498" xlink:href="#g30"/><use y="13515" xlink:href="#g31"/><use y="13532" xlink:href="#g32"/><use y="13549" xlink:href="#g33"/><use y="13566" xlink:href="#g34"/><rect class="foreground" height="17" width="8" x="40" y="13583"/><use y="13583" xlink:href="#g5"/></g><g><use y="13702" xlink:href="#g16"/><use y="13719" xlink:href="#g17"/><use y="13736" xlink:href="#g18"/><use y="13753" xlink:href="#g19"/><use y="13770" xlink:href="#g20"/><use y="13787" xlink:href="#g21"/><use y="13804" xlink:href="#g22"/><use y="13821" xlink:href="#g23"/><use y="13838" xlink:href="#g24"/><use y="13855" xlink:href="#g25"/><use y="13872" xlink:href="#g26"/><use y="13889" xlink:href="#g27"/><use y="13906" xlink:href="#g28"/><use y="13923" xlink:href="#g29"/><use y="13940" xlink:href="#g30"/><use y="13957" xlink:href="#g31"/><use y="13974" xlink:href="#g32"/><use y="13991" xlink:href="#g33"/><use y="14008" xlink:href="#g34"/><rect class="foreground" height="17" width="8" x="48" y="14025"/><use y="14025" xlink:href="#g6"/></g><g><use y="14144" xlink:href="#g16"/><use y="14161" xlink:href="#g17"/><use y="14178" xlink:href="#g18"/><use y="14195" xlink:href="#g19"/><use y="14212" xlink:href="#g20"/><use y="14229" xlink:href="#g21"/><use y="14246" xlink:href="#g22"/><use y="14263" xlink:href="#g23"/><use y="14280" xlink:href="#g24"/><use y="14297" xlink:href="#g25"/><use y="14314" xlink:href="#g26"/><use y="14331" xlink:href="#g27"/><use y="14348" xlink:href="#g28"/><use y="14365" xlink:href="#g29"/><use y="14382" xlink:href="#g30"/><use y="14399" xlink:href="#g31"/><use y="14416" xlink:href="#g32"/><use y="14433" xlink:href="#g33"/><use y="14450" xlink:href="#g34"/><rect class="foreground" height="17" width="8" x="56" y="14467"/><use y="14467" xlink:href="#g7"/></g><g><use y="14586" xlink:href="#g16"/><use y="14603" xlink:href="#g17"/><use y="14620" xlink:href="#g18"/><use y="14637" xlink:href="#g19"/><use y="14654" xlink:href="#g20"/><use y="14671" xlink:href="#g21"/><use y="14688" xlink:href="#g22"/><use y="14705" xlink:href="#g23"/><use y="14722" xlink:href="#g24"/><use y="14739" xlink:href="#g25"/><use y="14756" xlink:href="#g26"/><use y="14773" xlink:href="#g27"/><use y="14790" xlink:href="#g28"/><use y="14807" xlink:href="#g29"/><use y="14824" xlink:href="#g30"/><use y="14841" xlink:href="#g31"/><use y="14858" xlink:href="#g32"/><use y="14875" xlink:href="#g33"/><use y="14892" xlink:href="#g34"/><rect class="foreground" height="17" width="8" x="64" y="14909"/><use y="14909" xlink:href="#g8"/></g><g><use y="15028" xlink:href="#g16"/><use y="15045" xlink:href="#g17"/><use y="15062" xlink:href="#g18"/><use y="15079" xlink:href="#g19"/><use y="15096" xlink:href="#g20"/><use y="15113" xlink:href="#g21"/><use y="15130" xlink:href="#g22"/><use y="15147" xlink:href="#g23"/><use y="15164" xlink:href="#g24"/><use y="15181" xlink:href="#g25"/><use y="15198" xlink:href="#g26"/><use y="15215" xlink:href="#g27"/><use y="15232" xlink:href="#g28"/><use y="15249" xlink:href="#g29"/><use y="15266" xlink:href="#g30"/><use y="15283" xlink:href="#g31"/><use y="15300" xlink:href="#g32"/><use y="15317" xlink:href="#g33"/><use y="15334" xlink:href="#g34"/><rect class="foreground" height="17" width="8" x="72" y="15351"/><use y="15351" xlink:href="#g9"/></g><g><use y="15470" xlink:href="#g16"/><use y="15487" xlink:href="#g17"/><use y="15504" xlink:href="#g18"/><use y="15521" xlink:href="#g19"/><use y="15538" xlink:href="#g20"/><use y="15555" xlink:href="#g21"/><use y="15572" xlink:href="#g22"/><use y="15589" xlink:href="#g23"/><use y="15606" xlink:href="#g24"/><use y="15623" xlink:href="#g25"/><use y="15640" xlink:href="#g26"/><use y="15657" xlink:href="#g27"/><use y="15674" xlink:href="#g28"/><use y="15691" xlink:href="#g29"/><use y="15708" xlink:href="#g30"/><use y="15725" xlink:href="#g31"/><use y="15742" xlink:href="#g32"/><use y="15759" xlink:href="#g33"/><use y="15776" xlink:href="#g34"/><rect class="foreground" height="17" width="8" x="80" y="15793"/><use y="15793" xlink:href="#g10"/></g><g><use y="15912" xlink:href="#g16"/><use y="15929" xlink:href="#g17"/><use y="15946" xlink:href="#g18"/><use y="15963" xlink:href="#g19"/><use y="15980" xlink:href="#g20"/><use y="15997" xlink:href="#g21"/><use y="16014" xlink:href="#g22"/><use y="16031" xlink:href="#g23"/><use y="16048" xlink:href="#g24"/><use y="16065" xlink:href="#g25"/><use y="16082" xlink:href="#g26"/><use y="16099" xlink:href="#g27"/><use y="16116" xlink:href="#g28"/><use y="16133" xlink:href="#g29"/><use y="16150" xlink:href="#g30"/><use y="16167" xlink:href="#g31"/><use y="16184" xlink:href="#g32"/><use y="16201" xlink:href="#g33"/><use y="16218" xlink:href="#g34"/><rect class="foreground" height="17" width="8" x="88" y="16235"/><use y="16235" xlink:href="#g11"/></g><g><use y="16354" xlink:href="#g16"/><use y="16371" xlink:href="#g17"/><use y="16388" xlink:href="#g18"/><use y="16405" xlink:href="#g19"/><use y="16422" xlink:href="#g20"/><use y="16439" xlink:href="#g21"/><use y="16456" xlink:href="#g22"/><use y="16473" xlink:href="#g23"/><use y="16490" xlink:href="#g24"/><use y="16507" xlink:href="#g25"/><use y="16524" xlink:href="#g26"/><use y="16541" xlink:href="#g27"/><use y="16558" xlink:href="#g28"/><use y="16575" xlink:href="#g29"/><use y="16592" xlink:href="#g30"/><use y="16609" xlink:href="#g31"/><use y="16626" xlink:href="#g32"/><use y="16643" xlink:href="#g33"/><use y="16660" xlink:href="#g34"/><rect class="foreground" height="17" width="8" x="96" y="16677"/><use y="16677" xlink:href="#g12"/></g><g><use y="16796" xlink:href="#g16"/><use y="16813" xlink:href="#g17"/><use y="16830" xlink:href="#g18"/><use y="16847" xlink:href="#g19"/><use y="16864" xlink:href="#g20"/><use y="16881" xlink:href="#g21"/><use y="16898" xlink:href="#g22"/><use y="16915" xlink:href="#g23"/><use y="16932" xlink:href="#g24"/><use y="16949" xlink:href="#g25"/><use y="16966" xlink:href="#g26"/><use y="16983" xlink:href="#g27"/><use y="17000" xlink:href="#g28"/><use y="17017" xlink:href="#g29"/><use y="17034" xlink:href="#g30"/><use y="17051" xlink:href="#g31"/><use y="17068" xlink:href="#g32"/><use y="17085" xlink:href="#g33"/><use y="17102" xlink:href="#g34"/><rect class="foreground" height="17" width="8" x="104" y="17119"/><use y="17119" xlink:href="#g13"/></g><g><use y="17238" xlink:href="#g16"/><use y="17255" xlink:href="#g17"/><use y="17272" xlink:href="#g18"/><use y="17289" xlink:href="#g19"/><use y="17306" xlink:href="#g20"/><use y="17323" xlink:href="#g21"/><use y="17340" xlink:href="#g22"/><use y="17357" xlink:href="#g23"/><use y="17374" xlink:href="#g24"/><use y="17391" xlink:href="#g25"/><use y="17408" xlink:href="#g26"/><use y="17425" xlink:href="#g27"/><use y="17442" xlink:href="#g28"/><use y="17459" xlink:href="#g29"/><use y="17476" xlink:href="#g30"/><use y="17493" xlink:href="#g31"/><use y="17510" xlink:href="#g32"/><use y="17527" xlink:href="#g33"/><use y="17544" xlink:href="#g34"/><rect class="foreground" height="17" width="8" x="112" y="17561"/><use y="17561" xlink:href="#g14"/></g><g><use y="17680" xlink:href="#g16"/><use y="17697" xlink:href="#g17"/><use y="17714" xlink:href="#g18"/><use y="17731" xlink:href="#g19"/><use y="17748" xlink:href="#g20"/><use y="17765" xlink:href="#g21"/><use y="17782" xlink:href="#g22"/><use y="17799" xlink:href="#g23"/><use y="17816" xlink:href="#g24"/><use y="17833" xlink:href="#g25"/><use y="17850" xlink:href="#g26"/><use y="17867" xlink:href="#g27"/><use y="17884" xlink:href="#g28"/><use y="17901" xlink:href="#g29"/><use y="17918" xlink:href="#g30"/><use y="17935" xlink:href="#g31"/><use y="17952" xlink:href="#g32"/><use y="17969" xlink:href="#g33"/><use y="17986" xlink:href="#g34"/><rect class="foreground" height="17" width="8" x="120" y="18003"/><use y="18003" xlink:href="#g15"/></g><g><use y="18122" xlink:href="#g16"/><use y="18139" xlink:href="#g17"/><use y="18156" xlink:href="#g18"/><use y="18173" xlink:href="#g19"/><use y="18190" xlink:href="#g20"/><use y="18207" xlink:href="#g21"/><use y="18224" xlink:href="#g22"/><use y="18241" xlink:href="#g23"/><use y="18258" xlink:href="#g24"/><use y="18275" xlink:href="#g25"/><use y="18292" xlink:href="#g26"/><use y="18309" xlink:href="#g27"/><use y="18326" xlink:href="#g28"/><use y="18343" xlink:href="#g29"/><use y="18360" xlink:href="#g30"/><use y="18377" xlink:href="#g31"/><use y="18394" xlink:href="#g32"/><use y="18411" xlink:href="#g33"/><use y="18428" xlink:href="#g34"/><use y="18445" xlink:href="#g16"/><rect class="foreground" height="17" width="8" x="0" y="18462"/><use y="18462" xlink:href="#g1"/></g><g><use y="18564" xlink:href="#g16"/><use y="18581" xlink:href="#g17"/><use y="18598" xlink:href="#g18"/><use y="18615" xlink:href="#g19"/><use y="18632" xlink:href="#g20"/><use y="18649" xlink:href="#g21"/><use y="18666" xlink:href="#g22"/><use y="18683" xlink:href="#g23"/><use y="18700" xlink:href="#g24"/><use y="18717" xlink:href="#g25"/><use y="18734" xlink:href="#g26"/><use y="18751" xlink:href="#g27"/><use y="18768" xlink:href="#g28"/><use y="18785" xlink:href="#g29"/><use y="18802" xlink:href="#g30"/><use y="18819" xlink:href="#g31"/><use y="18836" xlink:href="#g32"/><use y="18853" xlink:href="#g33"/><use y="18870" xlink:href="#g34"/><use y="18887" xlink:href="#g16"/><use y="18904" xlink:href="#g17"/><rect class="foreground" height="17" width="8" x="0" y="18921"/><use y="18921" xlink:href="#g1"/></g><g><use y="19006" xlink:href="#g16"/><use y="19023" xlink:href="#g17"/><use y="19040" xlink:href="#g18"/><use y="19057" xlink:href="#g19"/><use y="19074" xlink:href="#g20"/><use y="19091" xlink:href="#g21"/><use y="19108" xlink:href="#g22"/><use y="19125" xlink:href="#g23"/><use y="19142" xlink:href="#g24"/><use y="19159" xlink:href="#g25"/><use y="19176" xlink:href="#g26"/><use y="19193" xlink:href="#g27"/><use y="19210" xlink:href="#g28"/><use y="19227" xlink:href="#g29"/><use y="19244" xlink:href="#g30"/><use y="19261" xlink:href="#g31"/><use y="19278" xlink:href="#g32"/><use y="19295" xlink:href="#g33"/><use y="19312" xlink:href="#g34"/><use y="19329" xlink:href="#g16"/><use y="19346" xlink:href="#g17"/><use y="19363" xlink:href="#g18"/><rect class="foreground" height="17" width="8" x="0" y="19380"/><use y="19380" xlink:href="#g1"/></g><g><use y="19448" xlink:href="#g16"/><use y="19465" xlink:href="#g17"/><use y="19482" xlink:href="#g18"/><use y="19499" xlink:href="#g19"/><use y="19516" xlink:href="#g20"/><use y="19533" xlink:href="#g21"/><use y="19550" xlink:href="#g22"/><use y="19567" xlink:href="#g23"/><use y="19584" xlink:href="#g24"/><use y="19601" xlink:href="#g25"/><use y="19618" xlink:href="#g26"/><use y="19635" xlink:href="#g27"/><use y="19652" xlink:href="#g28"/><use y="19669" xlink:href="#g29"/><use y="19686" xlink:href="#g30"/><use y="19703" xlink:href="#g31"/><use y="19720" xlink:href="#g32"/><use y="19737" xlink:href="#g33"/><use y="19754" xlink:href="#g34"/><use y="19771" xlink:href="#g16"/><use y="19788" xlink:href="#g17"/><use y="19805" xlink:href="#g18"/><use y="19822" xlink:href="#g35"/><rect class="foreground" height="17" width="8" x="0" y="19839"/><use y="19839" xlink:href="#g1"/></g><g><use y="19890" xlink:href="#g16"/><use y="19907" xlink:href="#g17"/><use y="19924" xlink:href="#g18"/><use y="19941" xlink:href="#g19"/><use y="19958" xlink:href="#g20"/><use y="19975" xlink:href="#g21"/><use y="19992" xlink:href="#g22"/><use y="20009" xlink:href="#g23"/><use y="20026" xlink:href="#g24"/><use y="20043" xlink:href="#g25"/><use y="20060" xlink:href="#g26"/><use y="20077" xlink:href="#g27"/><use y="20094" xlink:href="#g28"/><use y="20111" xlink:href="#g29"/><use y="20128" xlink:href="#g30"/><use y="20145" xlink:href="#g31"/><use y="20162" xlink:href="#g32"/><use y="20179" xlink:href="#g33"/><use y="20196" xlink:href="#g34"/><use y="20213" xlink:href="#g16"/><use y="20230" xlink:href="#g17"/><use y="20247" xlink:href="#g18"/><use y="20264" xlink:href="#g35"/><use y="20281" xlink:href="#g34"/><rect class="foreground" height="17" width="8" x="0" y="20298"/><use y="20298" xlink:href="#g1"/></g></g></svg>
</svg>