<svg xmlns="http://www.w3.org/2000/svg" xmlns:xlink="http://www.w3.org/1999/xlink" id="terminal" baseProfile="full" viewBox="0 0 663 370" width="663" version="1.1">
    <defs>
        <style type="text/css"><![CDATA[#screen {
                font-family: 'DejaVu Sans Mono', monospace;
                font-style: normal;
                font-size: 14px;
            }

        text {
            dominant-baseline: text-before-edge;
            white-space: pre;
        }

            :root {
                --animation-duration: 16406ms;
            }

            @keyframes roll {
                0.000%{transform:translateY(0px)}
0.061%{transform:translateY(-306px)}
8.302%{transform:translateY(-612px)}
8.692%{transform:translateY(-918px)}
9.692%{transform:translateY(-1224px)}
10.319%{transform:translateY(-1530px)}
10.545%{transform:translateY(-1836px)}
11.471%{transform:translateY(-2142px)}
11.715%{transform:translateY(-2448px)}
12.191%{transform:translateY(-2754px)}
12.678%{transform:translateY(-3060px)}
13.044%{transform:translateY(-3366px)}
13.434%{transform:translateY(-3672px)}
14.044%{transform:translateY(-3978px)}
14.324%{transform:translateY(-4284px)}
14.653%{transform:translateY(-4590px)}
20.048%{transform:translateY(-4896px)}
26.819%{transform:translateY(-5202px)}
27.429%{transform:translateY(-5508px)}
28.039%{transform:translateY(-5814px)}
31.086%{transform:translateY(-6120px)}
34.134%{transform:translateY(-6426px)}
35.048%{transform:translateY(-6732px)}
35.414%{transform:translateY(-7038px)}
39.163%{transform:translateY(-7344px)}
40.997%{transform:translateY(-7650px)}
41.997%{transform:translateY(-7956px)}
42.625%{transform:translateY(-8262px)}
42.850%{transform:translateY(-8568px)}
43.777%{transform:translateY(-8874px)}
44.020%{transform:translateY(-9180px)}
44.496%{transform:translateY(-9486px)}
44.984%{transform:translateY(-9792px)}
45.349%{transform:translateY(-10098px)}
45.739%{transform:translateY(-10404px)}
46.349%{transform:translateY(-10710px)}
46.629%{transform:translateY(-11016px)}
46.958%{transform:translateY(-11322px)}
54.864%{transform:translateY(-11628px)}
56.851%{transform:translateY(-11934px)}
57.333%{transform:translateY(-12240px)}
100.000%{transform:translateY(-12240px)}
            }

            #screen_view {
                animation-duration: 16406ms;
                animation-iteration-count:infinite;
                animation-name:roll;
                animation-timing-function: steps(1,end);
                animation-fill-mode: forwards;
            }
        ]]></style>
        <style type="text/css">
            .foreground {fill: #f8f8f2}
            .background {fill: #272822}
            .color0 {fill: #272822}
            .color1 {fill: #f92672}
            .color2 {fill: #a6e22e}
            .color3 {fill: #f4bf75}
            .color4 {fill: #66d9ef}
            .color5 {fill: #ae81ff}
            .color6 {fill: #a1efe4}
            .color7 {fill: #f8f8f2}
            .color8 {fill: #75715e}
            .color9 {fill: #fd971f}
            .color10 {fill: #383830}
            .color11 {fill: #49483e}
            .color12 {fill: #a59f85}
            .color13 {fill: #f5f4f1}
            .color14 {fill: #cc6633}
            .color15 {fill: #f9f8f5}
        </style>
    </defs>
    <rect class="background" width="100%" height="100%" ry="4.5826941"/>
    <circle cx="24" cy="23" r="7" class="color1"/>
    <circle cx="44" cy="23" r="7" class="color3"/>
    <circle cx="64" cy="23" r="7" class="color2"/>
    <svg id="screen" width="616" height="289" x="23" y="50" viewBox="0 0 616 289" preserveAspectRatio="xMidYMin slice"><rect class="background" height="100%" width="100%" x="0" y="0"/><defs><g id="g1"><text x="0" textLength="8" class="background"> </text></g><g id="g2"><text x="0" textLength="8" class="color2">&gt;</text><text x="8" textLength="8" class="foreground"> </text><text x="16" textLength="8" class="background"> </text></g><g id="g3"><text x="0" textLength="8" class="color2">&gt;</text><text x="8" textLength="16" class="foreground"> n</text><text x="24" textLength="8" class="background"> </text></g><g id="g4"><text x="0" textLength="8" class="color2">&gt;</text><text x="8" textLength="24" class="foreground"> no</text><text x="32" textLength="8" class="background"> </text></g><g id="g5"><text x="0" textLength="8" class="color2">&gt;</text><text x="8" textLength="32" class="foreground"> nod</text><text x="40" textLength="8" class="background"> </text></g><g id="g6"><text x="0" textLength="8" class="color2">&gt;</text><text x="8" textLength="40" class="foreground"> node</text><text x="48" textLength="8" class="background"> </text></g><g id="g7"><text x="0" textLength="8" class="color2">&gt;</text><text x="8" textLength="48" class="foreground"> node </text><text x="56" textLength="8" class="background"> </text></g><g id="g8"><text x="0" textLength="8" class="color2">&gt;</text><text x="8" textLength="56" class="foreground"> node s</text><text x="64" textLength="8" class="background"> </text></g><g id="g9"><text x="0" textLength="8" class="color2">&gt;</text><text x="8" textLength="64" class="foreground"> node se</text><text x="72" textLength="8" class="background"> </text></g><g id="g10"><text x="0" textLength="8" class="color2">&gt;</text><text x="8" textLength="72" class="foreground"> node ser</text><text x="80" textLength="8" class="background"> </text></g><g id="g11"><text x="0" textLength="8" class="color2">&gt;</text><text x="8" textLength="80" class="foreground"> node serv</text><text x="88" textLength="8" class="background"> </text></g><g id="g12"><text x="0" textLength="8" class="color2">&gt;</text><text x="8" textLength="88" class="foreground"> node serve</text><text x="96" textLength="8" class="background"> </text></g><g id="g13"><text x="0" textLength="8" class="color2">&gt;</text><text x="8" textLength="96" class="foreground"> node server</text><text x="104" textLength="8" class="background"> </text></g><g id="g14"><text x="0" textLength="8" class="color2">&gt;</text><text x="8" textLength="104" class="foreground"> node server.</text><text x="112" textLength="8" class="background"> </text></g><g id="g15"><text x="0" textLength="8" class="color2">&gt;</text><text x="8" textLength="112" class="foreground"> node server.j</text><text x="120" textLength="8" class="background"> </text></g><g id="g16"><text x="0" textLength="8" class="color2">&gt;</text><text x="8" textLength="120" class="foreground"> node server.js</text></g><g id="g17"><text x="0" textLength="144" class="foreground">Postgres Differ &gt; </text><text x="144" textLength="96" class="color2">Sync started</text></g><g id="g18"><text x="0" textLength="600" class="foreground">alter table "public"."users" alter column "age" type character varying(64);</text></g><g id="g19"><text x="0" textLength="520" class="foreground">alter table "public"."users" alter column "age" set default '16';</text></g><g id="g20"><text x="0" textLength="472" class="foreground">alter table "public"."users" add column "role" bigint null;</text></g><g id="g21"><text x="0" textLength="616" class="foreground">create table "public"."roles" ( "id" bigint generated by default as identity,</text></g><g id="g22"><text x="0" textLength="240" class="foreground"> "name" character(255) null );</text></g><g id="g23"><text x="0" textLength="608" class="foreground">alter table "public"."users" add foreign key ( "role" ) references "public".</text></g><g id="g24"><text x="0" textLength="136" class="foreground">"roles" ( "id" );</text></g><g id="g25"><text x="0" textLength="144" class="foreground">Postgres Differ &gt; </text><text x="144" textLength="128" class="color2">Sync successful!</text></g><g id="g26"><text x="0" textLength="392" class="foreground">Postgres Differ &gt; Database does not need updating</text></g></defs><g id="screen_view"><g><rect x="0" y="0" width="8" height="17" class="foreground"/><use xlink:href="#g1" y="0"/></g><g><rect x="16" y="306" width="8" height="17" class="foreground"/><use xlink:href="#g2" y="306"/></g><g><rect x="24" y="612" width="8" height="17" class="foreground"/><use xlink:href="#g3" y="612"/></g><g><rect x="32" y="918" width="8" height="17" class="foreground"/><use xlink:href="#g4" y="918"/></g><g><rect x="40" y="1224" width="8" height="17" class="foreground"/><use xlink:href="#g5" y="1224"/></g><g><rect x="48" y="1530" width="8" height="17" class="foreground"/><use xlink:href="#g6" y="1530"/></g><g><rect x="56" y="1836" width="8" height="17" class="foreground"/><use xlink:href="#g7" y="1836"/></g><g><rect x="64" y="2142" width="8" height="17" class="foreground"/><use xlink:href="#g8" y="2142"/></g><g><rect x="72" y="2448" width="8" height="17" class="foreground"/><use xlink:href="#g9" y="2448"/></g><g><rect x="80" y="2754" width="8" height="17" class="foreground"/><use xlink:href="#g10" y="2754"/></g><g><rect x="88" y="3060" width="8" height="17" class="foreground"/><use xlink:href="#g11" y="3060"/></g><g><rect x="96" y="3366" width="8" height="17" class="foreground"/><use xlink:href="#g12" y="3366"/></g><g><rect x="104" y="3672" width="8" height="17" class="foreground"/><use xlink:href="#g13" y="3672"/></g><g><rect x="112" y="3978" width="8" height="17" class="foreground"/><use xlink:href="#g14" y="3978"/></g><g><rect x="120" y="4284" width="8" height="17" class="foreground"/><use xlink:href="#g15" y="4284"/></g><g><use xlink:href="#g16" y="4590"/><rect x="0" y="4607" width="8" height="17" class="foreground"/><use xlink:href="#g1" y="4607"/></g><g><use xlink:href="#g16" y="4896"/><use xlink:href="#g17" y="4913"/><rect x="0" y="4930" width="8" height="17" class="foreground"/><use xlink:href="#g1" y="4930"/></g><g><use xlink:href="#g16" y="5202"/><use xlink:href="#g17" y="5219"/><use xlink:href="#g18" y="5236"/><rect x="0" y="5253" width="8" height="17" class="foreground"/><use xlink:href="#g1" y="5253"/></g><g><use xlink:href="#g16" y="5508"/><use xlink:href="#g17" y="5525"/><use xlink:href="#g18" y="5542"/><use xlink:href="#g19" y="5559"/><rect x="0" y="5576" width="8" height="17" class="foreground"/><use xlink:href="#g1" y="5576"/></g><g><use xlink:href="#g16" y="5814"/><use xlink:href="#g17" y="5831"/><use xlink:href="#g18" y="5848"/><use xlink:href="#g19" y="5865"/><use xlink:href="#g20" y="5882"/><rect x="0" y="5899" width="8" height="17" class="foreground"/><use xlink:href="#g1" y="5899"/></g><g><use xlink:href="#g16" y="6120"/><use xlink:href="#g17" y="6137"/><use xlink:href="#g18" y="6154"/><use xlink:href="#g19" y="6171"/><use xlink:href="#g20" y="6188"/><use xlink:href="#g21" y="6205"/><use xlink:href="#g22" y="6222"/><rect x="0" y="6239" width="8" height="17" class="foreground"/><use xlink:href="#g1" y="6239"/></g><g><use xlink:href="#g16" y="6426"/><use xlink:href="#g17" y="6443"/><use xlink:href="#g18" y="6460"/><use xlink:href="#g19" y="6477"/><use xlink:href="#g20" y="6494"/><use xlink:href="#g21" y="6511"/><use xlink:href="#g22" y="6528"/><use xlink:href="#g23" y="6545"/><use xlink:href="#g24" y="6562"/><rect x="0" y="6579" width="8" height="17" class="foreground"/><use xlink:href="#g1" y="6579"/></g><g><use xlink:href="#g16" y="6732"/><use xlink:href="#g17" y="6749"/><use xlink:href="#g18" y="6766"/><use xlink:href="#g19" y="6783"/><use xlink:href="#g20" y="6800"/><use xlink:href="#g21" y="6817"/><use xlink:href="#g22" y="6834"/><use xlink:href="#g23" y="6851"/><use xlink:href="#g24" y="6868"/><use xlink:href="#g25" y="6885"/><rect x="0" y="6919" width="8" height="17" class="foreground"/><use xlink:href="#g1" y="6919"/></g><g><use xlink:href="#g16" y="7038"/><use xlink:href="#g17" y="7055"/><use xlink:href="#g18" y="7072"/><use xlink:href="#g19" y="7089"/><use xlink:href="#g20" y="7106"/><use xlink:href="#g21" y="7123"/><use xlink:href="#g22" y="7140"/><use xlink:href="#g23" y="7157"/><use xlink:href="#g24" y="7174"/><use xlink:href="#g25" y="7191"/><rect x="16" y="7225" width="8" height="17" class="foreground"/><use xlink:href="#g2" y="7225"/></g><g><use xlink:href="#g16" y="7344"/><use xlink:href="#g17" y="7361"/><use xlink:href="#g18" y="7378"/><use xlink:href="#g19" y="7395"/><use xlink:href="#g20" y="7412"/><use xlink:href="#g21" y="7429"/><use xlink:href="#g22" y="7446"/><use xlink:href="#g23" y="7463"/><use xlink:href="#g24" y="7480"/><use xlink:href="#g25" y="7497"/><rect x="24" y="7531" width="8" height="17" class="foreground"/><use xlink:href="#g3" y="7531"/></g><g><use xlink:href="#g16" y="7650"/><use xlink:href="#g17" y="7667"/><use xlink:href="#g18" y="7684"/><use xlink:href="#g19" y="7701"/><use xlink:href="#g20" y="7718"/><use xlink:href="#g21" y="7735"/><use xlink:href="#g22" y="7752"/><use xlink:href="#g23" y="7769"/><use xlink:href="#g24" y="7786"/><use xlink:href="#g25" y="7803"/><rect x="32" y="7837" width="8" height="17" class="foreground"/><use xlink:href="#g4" y="7837"/></g><g><use xlink:href="#g16" y="7956"/><use xlink:href="#g17" y="7973"/><use xlink:href="#g18" y="7990"/><use xlink:href="#g19" y="8007"/><use xlink:href="#g20" y="8024"/><use xlink:href="#g21" y="8041"/><use xlink:href="#g22" y="8058"/><use xlink:href="#g23" y="8075"/><use xlink:href="#g24" y="8092"/><use xlink:href="#g25" y="8109"/><rect x="40" y="8143" width="8" height="17" class="foreground"/><use xlink:href="#g5" y="8143"/></g><g><use xlink:href="#g16" y="8262"/><use xlink:href="#g17" y="8279"/><use xlink:href="#g18" y="8296"/><use xlink:href="#g19" y="8313"/><use xlink:href="#g20" y="8330"/><use xlink:href="#g21" y="8347"/><use xlink:href="#g22" y="8364"/><use xlink:href="#g23" y="8381"/><use xlink:href="#g24" y="8398"/><use xlink:href="#g25" y="8415"/><rect x="48" y="8449" width="8" height="17" class="foreground"/><use xlink:href="#g6" y="8449"/></g><g><use xlink:href="#g16" y="8568"/><use xlink:href="#g17" y="8585"/><use xlink:href="#g18" y="8602"/><use xlink:href="#g19" y="8619"/><use xlink:href="#g20" y="8636"/><use xlink:href="#g21" y="8653"/><use xlink:href="#g22" y="8670"/><use xlink:href="#g23" y="8687"/><use xlink:href="#g24" y="8704"/><use xlink:href="#g25" y="8721"/><rect x="56" y="8755" width="8" height="17" class="foreground"/><use xlink:href="#g7" y="8755"/></g><g><use xlink:href="#g16" y="8874"/><use xlink:href="#g17" y="8891"/><use xlink:href="#g18" y="8908"/><use xlink:href="#g19" y="8925"/><use xlink:href="#g20" y="8942"/><use xlink:href="#g21" y="8959"/><use xlink:href="#g22" y="8976"/><use xlink:href="#g23" y="8993"/><use xlink:href="#g24" y="9010"/><use xlink:href="#g25" y="9027"/><rect x="64" y="9061" width="8" height="17" class="foreground"/><use xlink:href="#g8" y="9061"/></g><g><use xlink:href="#g16" y="9180"/><use xlink:href="#g17" y="9197"/><use xlink:href="#g18" y="9214"/><use xlink:href="#g19" y="9231"/><use xlink:href="#g20" y="9248"/><use xlink:href="#g21" y="9265"/><use xlink:href="#g22" y="9282"/><use xlink:href="#g23" y="9299"/><use xlink:href="#g24" y="9316"/><use xlink:href="#g25" y="9333"/><rect x="72" y="9367" width="8" height="17" class="foreground"/><use xlink:href="#g9" y="9367"/></g><g><use xlink:href="#g16" y="9486"/><use xlink:href="#g17" y="9503"/><use xlink:href="#g18" y="9520"/><use xlink:href="#g19" y="9537"/><use xlink:href="#g20" y="9554"/><use xlink:href="#g21" y="9571"/><use xlink:href="#g22" y="9588"/><use xlink:href="#g23" y="9605"/><use xlink:href="#g24" y="9622"/><use xlink:href="#g25" y="9639"/><rect x="80" y="9673" width="8" height="17" class="foreground"/><use xlink:href="#g10" y="9673"/></g><g><use xlink:href="#g16" y="9792"/><use xlink:href="#g17" y="9809"/><use xlink:href="#g18" y="9826"/><use xlink:href="#g19" y="9843"/><use xlink:href="#g20" y="9860"/><use xlink:href="#g21" y="9877"/><use xlink:href="#g22" y="9894"/><use xlink:href="#g23" y="9911"/><use xlink:href="#g24" y="9928"/><use xlink:href="#g25" y="9945"/><rect x="88" y="9979" width="8" height="17" class="foreground"/><use xlink:href="#g11" y="9979"/></g><g><use xlink:href="#g16" y="10098"/><use xlink:href="#g17" y="10115"/><use xlink:href="#g18" y="10132"/><use xlink:href="#g19" y="10149"/><use xlink:href="#g20" y="10166"/><use xlink:href="#g21" y="10183"/><use xlink:href="#g22" y="10200"/><use xlink:href="#g23" y="10217"/><use xlink:href="#g24" y="10234"/><use xlink:href="#g25" y="10251"/><rect x="96" y="10285" width="8" height="17" class="foreground"/><use xlink:href="#g12" y="10285"/></g><g><use xlink:href="#g16" y="10404"/><use xlink:href="#g17" y="10421"/><use xlink:href="#g18" y="10438"/><use xlink:href="#g19" y="10455"/><use xlink:href="#g20" y="10472"/><use xlink:href="#g21" y="10489"/><use xlink:href="#g22" y="10506"/><use xlink:href="#g23" y="10523"/><use xlink:href="#g24" y="10540"/><use xlink:href="#g25" y="10557"/><rect x="104" y="10591" width="8" height="17" class="foreground"/><use xlink:href="#g13" y="10591"/></g><g><use xlink:href="#g16" y="10710"/><use xlink:href="#g17" y="10727"/><use xlink:href="#g18" y="10744"/><use xlink:href="#g19" y="10761"/><use xlink:href="#g20" y="10778"/><use xlink:href="#g21" y="10795"/><use xlink:href="#g22" y="10812"/><use xlink:href="#g23" y="10829"/><use xlink:href="#g24" y="10846"/><use xlink:href="#g25" y="10863"/><rect x="112" y="10897" width="8" height="17" class="foreground"/><use xlink:href="#g14" y="10897"/></g><g><use xlink:href="#g16" y="11016"/><use xlink:href="#g17" y="11033"/><use xlink:href="#g18" y="11050"/><use xlink:href="#g19" y="11067"/><use xlink:href="#g20" y="11084"/><use xlink:href="#g21" y="11101"/><use xlink:href="#g22" y="11118"/><use xlink:href="#g23" y="11135"/><use xlink:href="#g24" y="11152"/><use xlink:href="#g25" y="11169"/><rect x="120" y="11203" width="8" height="17" class="foreground"/><use xlink:href="#g15" y="11203"/></g><g><use xlink:href="#g16" y="11322"/><use xlink:href="#g17" y="11339"/><use xlink:href="#g18" y="11356"/><use xlink:href="#g19" y="11373"/><use xlink:href="#g20" y="11390"/><use xlink:href="#g21" y="11407"/><use xlink:href="#g22" y="11424"/><use xlink:href="#g23" y="11441"/><use xlink:href="#g24" y="11458"/><use xlink:href="#g25" y="11475"/><use xlink:href="#g16" y="11509"/><rect x="0" y="11526" width="8" height="17" class="foreground"/><use xlink:href="#g1" y="11526"/></g><g><use xlink:href="#g16" y="11628"/><use xlink:href="#g17" y="11645"/><use xlink:href="#g18" y="11662"/><use xlink:href="#g19" y="11679"/><use xlink:href="#g20" y="11696"/><use xlink:href="#g21" y="11713"/><use xlink:href="#g22" y="11730"/><use xlink:href="#g23" y="11747"/><use xlink:href="#g24" y="11764"/><use xlink:href="#g25" y="11781"/><use xlink:href="#g16" y="11815"/><use xlink:href="#g17" y="11832"/><rect x="0" y="11849" width="8" height="17" class="foreground"/><use xlink:href="#g1" y="11849"/></g><g><use xlink:href="#g16" y="11934"/><use xlink:href="#g17" y="11951"/><use xlink:href="#g18" y="11968"/><use xlink:href="#g19" y="11985"/><use xlink:href="#g20" y="12002"/><use xlink:href="#g21" y="12019"/><use xlink:href="#g22" y="12036"/><use xlink:href="#g23" y="12053"/><use xlink:href="#g24" y="12070"/><use xlink:href="#g25" y="12087"/><use xlink:href="#g16" y="12121"/><use xlink:href="#g17" y="12138"/><use xlink:href="#g26" y="12155"/><rect x="0" y="12172" width="8" height="17" class="foreground"/><use xlink:href="#g1" y="12172"/></g><g><use xlink:href="#g16" y="12240"/><use xlink:href="#g17" y="12257"/><use xlink:href="#g18" y="12274"/><use xlink:href="#g19" y="12291"/><use xlink:href="#g20" y="12308"/><use xlink:href="#g21" y="12325"/><use xlink:href="#g22" y="12342"/><use xlink:href="#g23" y="12359"/><use xlink:href="#g24" y="12376"/><use xlink:href="#g25" y="12393"/><use xlink:href="#g16" y="12427"/><use xlink:href="#g17" y="12444"/><use xlink:href="#g26" y="12461"/><use xlink:href="#g25" y="12478"/><rect x="0" y="12495" width="8" height="17" class="foreground"/><use xlink:href="#g1" y="12495"/></g></g></svg>
</svg>
