<svg xmlns="http://www.w3.org/2000/svg" xmlns:xlink="http://www.w3.org/1999/xlink" id="terminal" baseProfile="full" viewBox="0 0 663 387" width="663" version="1.1">
    <defs>
        <style type="text/css"><![CDATA[#screen {
                font-family: 'DejaVu Sans Mono', monospace;
                font-style: normal;
                font-size: 14px;
            }

        text {
            dominant-baseline: text-before-edge;
            white-space: pre;
        }

            :root {
                --animation-duration: 16406ms;
            }

            @keyframes roll {
                0.000%{transform:translateY(0px)}
0.061%{transform:translateY(-340px)}
8.302%{transform:translateY(-680px)}
8.692%{transform:translateY(-1020px)}
9.692%{transform:translateY(-1360px)}
10.319%{transform:translateY(-1700px)}
10.545%{transform:translateY(-2040px)}
11.471%{transform:translateY(-2380px)}
11.715%{transform:translateY(-2720px)}
12.191%{transform:translateY(-3060px)}
12.678%{transform:translateY(-3400px)}
13.044%{transform:translateY(-3740px)}
13.434%{transform:translateY(-4080px)}
14.044%{transform:translateY(-4420px)}
14.324%{transform:translateY(-4760px)}
14.653%{transform:translateY(-5100px)}
20.048%{transform:translateY(-5440px)}
20.419%{transform:translateY(-5780px)}
23.205%{transform:translateY(-6120px)}
28.039%{transform:translateY(-6460px)}
28.648%{transform:translateY(-6800px)}
29.258%{transform:translateY(-7140px)}
32.915%{transform:translateY(-7480px)}
34.439%{transform:translateY(-7820px)}
34.804%{transform:translateY(-8160px)}
39.163%{transform:translateY(-8500px)}
40.997%{transform:translateY(-8840px)}
41.997%{transform:translateY(-9180px)}
42.625%{transform:translateY(-9520px)}
42.850%{transform:translateY(-9860px)}
43.777%{transform:translateY(-10200px)}
44.020%{transform:translateY(-10540px)}
44.496%{transform:translateY(-10880px)}
44.984%{transform:translateY(-11220px)}
45.349%{transform:translateY(-11560px)}
45.739%{transform:translateY(-11900px)}
46.349%{transform:translateY(-12240px)}
46.629%{transform:translateY(-12580px)}
46.958%{transform:translateY(-12920px)}
54.864%{transform:translateY(-13260px)}
54.870%{transform:translateY(-13600px)}
56.851%{transform:translateY(-13940px)}
57.333%{transform:translateY(-14280px)}
100.000%{transform:translateY(-14280px)}
            }

            #screen_view {
                animation-duration: 16406ms;
                animation-iteration-count:infinite;
                animation-name:roll;
                animation-timing-function: steps(1,end);
                animation-fill-mode: forwards;
            }
        ]]></style>
        <style type="text/css" id="user-style">
            /* gjm8 color theme (source: https://terminal.sexy/) */
            .foreground {fill: #f8f8f2}
            .background {fill: #272822}
            .color0 {fill: #272822}
            .color1 {fill: #f92672}
            .color2 {fill: #a6e22e}
            .color3 {fill: #f4bf75}
            .color4 {fill: #66d9ef}
            .color5 {fill: #ae81ff}
            .color6 {fill: #a1efe4}
            .color7 {fill: #f8f8f2}
            .color8 {fill: #75715e}
            .color9 {fill: #fd971f}
            .color10 {fill: #383830}
            .color11 {fill: #49483e}
            .color12 {fill: #a59f85}
            .color13 {fill: #f5f4f1}
            .color14 {fill: #cc6633}
            .color15 {fill: #f9f8f5}
        </style>
    </defs>
    <rect class="background" width="100%" height="100%" ry="4.5826941"/>
    <circle cx="24" cy="23" r="7" class="color1"/>
    <circle cx="44" cy="23" r="7" class="color3"/>
    <circle cx="64" cy="23" r="7" class="color2"/>
    <svg id="screen" width="616" height="306" x="23" y="50" viewBox="0 0 616 306" preserveAspectRatio="xMidYMin slice">
        <rect class="background" height="100%" width="100%" x="0" y="0"/><defs><g id="g1"><text class="background" textLength="8" x="0"> </text></g><g id="g2"><text class="color2" textLength="8" x="0">&gt;</text><text class="foreground" textLength="8" x="8"> </text><text class="background" textLength="8" x="16"> </text></g><g id="g3"><text class="color2" textLength="8" x="0">&gt;</text><text class="foreground" textLength="16" x="8"> n</text><text class="background" textLength="8" x="24"> </text></g><g id="g4"><text class="color2" textLength="8" x="0">&gt;</text><text class="foreground" textLength="24" x="8"> no</text><text class="background" textLength="8" x="32"> </text></g><g id="g5"><text class="color2" textLength="8" x="0">&gt;</text><text class="foreground" textLength="32" x="8"> nod</text><text class="background" textLength="8" x="40"> </text></g><g id="g6"><text class="color2" textLength="8" x="0">&gt;</text><text class="foreground" textLength="40" x="8"> node</text><text class="background" textLength="8" x="48"> </text></g><g id="g7"><text class="color2" textLength="8" x="0">&gt;</text><text class="foreground" textLength="48" x="8"> node </text><text class="background" textLength="8" x="56"> </text></g><g id="g8"><text class="color2" textLength="8" x="0">&gt;</text><text class="foreground" textLength="56" x="8"> node s</text><text class="background" textLength="8" x="64"> </text></g><g id="g9"><text class="color2" textLength="8" x="0">&gt;</text><text class="foreground" textLength="64" x="8"> node se</text><text class="background" textLength="8" x="72"> </text></g><g id="g10"><text class="color2" textLength="8" x="0">&gt;</text><text class="foreground" textLength="72" x="8"> node ser</text><text class="background" textLength="8" x="80"> </text></g><g id="g11"><text class="color2" textLength="8" x="0">&gt;</text><text class="foreground" textLength="80" x="8"> node serv</text><text class="background" textLength="8" x="88"> </text></g><g id="g12"><text class="color2" textLength="8" x="0">&gt;</text><text class="foreground" textLength="88" x="8"> node serve</text><text class="background" textLength="8" x="96"> </text></g><g id="g13"><text class="color2" textLength="8" x="0">&gt;</text><text class="foreground" textLength="96" x="8"> node server</text><text class="background" textLength="8" x="104"> </text></g><g id="g14"><text class="color2" textLength="8" x="0">&gt;</text><text class="foreground" textLength="104" x="8"> node server.</text><text class="background" textLength="8" x="112"> </text></g><g id="g15"><text class="color2" textLength="8" x="0">&gt;</text><text class="foreground" textLength="112" x="8"> node server.j</text><text class="background" textLength="8" x="120"> </text></g><g id="g16"><text class="color2" textLength="8" x="0">&gt;</text><text class="foreground" textLength="120" x="8"> node server.js</text></g><g id="g17"><text class="foreground" textLength="152" x="0">Postgres Differ :: </text><text class="color2" textLength="96" x="152">Sync started</text></g><g id="g18"><text class="foreground" textLength="152" x="0">Postgres Differ :: </text><text class="color2" textLength="240" x="152">Current version PostgreSQL: 11</text></g><g id="g19"><text class="foreground" textLength="528" x="0">create sequence "public"."roles_id_seq" start 1 increment 1 cycle;</text></g><g id="g20"><text class="foreground" textLength="504" x="0">alter table "public"."users" alter column "age" set default 16;</text></g><g id="g21"><text class="foreground" textLength="608" x="0">alter table "public"."users" alter column "age" type character varying(255);</text></g><g id="g22"><text class="foreground" textLength="496" x="0">alter table "public"."users" add column "parent" integer null;</text></g><g id="g23"><text class="foreground" textLength="616" x="0">create table "public"."roles" ( "id" bigint nextval('"public"."roles_id_seq"'</text></g><g id="g24"><text class="foreground" textLength="536" x="0">::regclass) not null, "body" json default '{"key":"value"}' null );</text></g><g id="g25"><text class="foreground" textLength="152" x="0">Postgres Differ :: </text><text class="color2" textLength="128" x="152">Sync successful!</text></g><g id="g26"><text class="foreground" textLength="400" x="0">Postgres Differ :: Database does not need updating</text></g></defs><g id="screen_view"><g><rect class="foreground" height="17" width="8" x="0" y="0"/><use y="0" xlink:href="#g1"/></g><g><rect class="foreground" height="17" width="8" x="16" y="340"/><use y="340" xlink:href="#g2"/></g><g><rect class="foreground" height="17" width="8" x="24" y="680"/><use y="680" xlink:href="#g3"/></g><g><rect class="foreground" height="17" width="8" x="32" y="1020"/><use y="1020" xlink:href="#g4"/></g><g><rect class="foreground" height="17" width="8" x="40" y="1360"/><use y="1360" xlink:href="#g5"/></g><g><rect class="foreground" height="17" width="8" x="48" y="1700"/><use y="1700" xlink:href="#g6"/></g><g><rect class="foreground" height="17" width="8" x="56" y="2040"/><use y="2040" xlink:href="#g7"/></g><g><rect class="foreground" height="17" width="8" x="64" y="2380"/><use y="2380" xlink:href="#g8"/></g><g><rect class="foreground" height="17" width="8" x="72" y="2720"/><use y="2720" xlink:href="#g9"/></g><g><rect class="foreground" height="17" width="8" x="80" y="3060"/><use y="3060" xlink:href="#g10"/></g><g><rect class="foreground" height="17" width="8" x="88" y="3400"/><use y="3400" xlink:href="#g11"/></g><g><rect class="foreground" height="17" width="8" x="96" y="3740"/><use y="3740" xlink:href="#g12"/></g><g><rect class="foreground" height="17" width="8" x="104" y="4080"/><use y="4080" xlink:href="#g13"/></g><g><rect class="foreground" height="17" width="8" x="112" y="4420"/><use y="4420" xlink:href="#g14"/></g><g><rect class="foreground" height="17" width="8" x="120" y="4760"/><use y="4760" xlink:href="#g15"/></g><g><use y="5100" xlink:href="#g16"/><rect class="foreground" height="17" width="8" x="0" y="5117"/><use y="5117" xlink:href="#g1"/></g><g><use y="5440" xlink:href="#g16"/><use y="5457" xlink:href="#g17"/><rect class="foreground" height="17" width="8" x="0" y="5474"/><use y="5474" xlink:href="#g1"/></g><g><use y="5780" xlink:href="#g16"/><use y="5797" xlink:href="#g17"/><use y="5814" xlink:href="#g18"/><rect class="foreground" height="17" width="8" x="0" y="5831"/><use y="5831" xlink:href="#g1"/></g><g><use y="6120" xlink:href="#g16"/><use y="6137" xlink:href="#g17"/><use y="6154" xlink:href="#g18"/><use y="6171" xlink:href="#g19"/><rect class="foreground" height="17" width="8" x="0" y="6188"/><use y="6188" xlink:href="#g1"/></g><g><use y="6460" xlink:href="#g16"/><use y="6477" xlink:href="#g17"/><use y="6494" xlink:href="#g18"/><use y="6511" xlink:href="#g19"/><use y="6528" xlink:href="#g20"/><rect class="foreground" height="17" width="8" x="0" y="6545"/><use y="6545" xlink:href="#g1"/></g><g><use y="6800" xlink:href="#g16"/><use y="6817" xlink:href="#g17"/><use y="6834" xlink:href="#g18"/><use y="6851" xlink:href="#g19"/><use y="6868" xlink:href="#g20"/><use y="6885" xlink:href="#g21"/><rect class="foreground" height="17" width="8" x="0" y="6902"/><use y="6902" xlink:href="#g1"/></g><g><use y="7140" xlink:href="#g16"/><use y="7157" xlink:href="#g17"/><use y="7174" xlink:href="#g18"/><use y="7191" xlink:href="#g19"/><use y="7208" xlink:href="#g20"/><use y="7225" xlink:href="#g21"/><use y="7242" xlink:href="#g22"/><rect class="foreground" height="17" width="8" x="0" y="7259"/><use y="7259" xlink:href="#g1"/></g><g><use y="7480" xlink:href="#g16"/><use y="7497" xlink:href="#g17"/><use y="7514" xlink:href="#g18"/><use y="7531" xlink:href="#g19"/><use y="7548" xlink:href="#g20"/><use y="7565" xlink:href="#g21"/><use y="7582" xlink:href="#g22"/><use y="7599" xlink:href="#g23"/><use y="7616" xlink:href="#g24"/><rect class="foreground" height="17" width="8" x="0" y="7633"/><use y="7633" xlink:href="#g1"/></g><g><use y="7820" xlink:href="#g16"/><use y="7837" xlink:href="#g17"/><use y="7854" xlink:href="#g18"/><use y="7871" xlink:href="#g19"/><use y="7888" xlink:href="#g20"/><use y="7905" xlink:href="#g21"/><use y="7922" xlink:href="#g22"/><use y="7939" xlink:href="#g23"/><use y="7956" xlink:href="#g24"/><use y="7973" xlink:href="#g25"/><rect class="foreground" height="17" width="8" x="0" y="8007"/><use y="8007" xlink:href="#g1"/></g><g><use y="8160" xlink:href="#g16"/><use y="8177" xlink:href="#g17"/><use y="8194" xlink:href="#g18"/><use y="8211" xlink:href="#g19"/><use y="8228" xlink:href="#g20"/><use y="8245" xlink:href="#g21"/><use y="8262" xlink:href="#g22"/><use y="8279" xlink:href="#g23"/><use y="8296" xlink:href="#g24"/><use y="8313" xlink:href="#g25"/><rect class="foreground" height="17" width="8" x="16" y="8347"/><use y="8347" xlink:href="#g2"/></g><g><use y="8500" xlink:href="#g16"/><use y="8517" xlink:href="#g17"/><use y="8534" xlink:href="#g18"/><use y="8551" xlink:href="#g19"/><use y="8568" xlink:href="#g20"/><use y="8585" xlink:href="#g21"/><use y="8602" xlink:href="#g22"/><use y="8619" xlink:href="#g23"/><use y="8636" xlink:href="#g24"/><use y="8653" xlink:href="#g25"/><rect class="foreground" height="17" width="8" x="24" y="8687"/><use y="8687" xlink:href="#g3"/></g><g><use y="8840" xlink:href="#g16"/><use y="8857" xlink:href="#g17"/><use y="8874" xlink:href="#g18"/><use y="8891" xlink:href="#g19"/><use y="8908" xlink:href="#g20"/><use y="8925" xlink:href="#g21"/><use y="8942" xlink:href="#g22"/><use y="8959" xlink:href="#g23"/><use y="8976" xlink:href="#g24"/><use y="8993" xlink:href="#g25"/><rect class="foreground" height="17" width="8" x="32" y="9027"/><use y="9027" xlink:href="#g4"/></g><g><use y="9180" xlink:href="#g16"/><use y="9197" xlink:href="#g17"/><use y="9214" xlink:href="#g18"/><use y="9231" xlink:href="#g19"/><use y="9248" xlink:href="#g20"/><use y="9265" xlink:href="#g21"/><use y="9282" xlink:href="#g22"/><use y="9299" xlink:href="#g23"/><use y="9316" xlink:href="#g24"/><use y="9333" xlink:href="#g25"/><rect class="foreground" height="17" width="8" x="40" y="9367"/><use y="9367" xlink:href="#g5"/></g><g><use y="9520" xlink:href="#g16"/><use y="9537" xlink:href="#g17"/><use y="9554" xlink:href="#g18"/><use y="9571" xlink:href="#g19"/><use y="9588" xlink:href="#g20"/><use y="9605" xlink:href="#g21"/><use y="9622" xlink:href="#g22"/><use y="9639" xlink:href="#g23"/><use y="9656" xlink:href="#g24"/><use y="9673" xlink:href="#g25"/><rect class="foreground" height="17" width="8" x="48" y="9707"/><use y="9707" xlink:href="#g6"/></g><g><use y="9860" xlink:href="#g16"/><use y="9877" xlink:href="#g17"/><use y="9894" xlink:href="#g18"/><use y="9911" xlink:href="#g19"/><use y="9928" xlink:href="#g20"/><use y="9945" xlink:href="#g21"/><use y="9962" xlink:href="#g22"/><use y="9979" xlink:href="#g23"/><use y="9996" xlink:href="#g24"/><use y="10013" xlink:href="#g25"/><rect class="foreground" height="17" width="8" x="56" y="10047"/><use y="10047" xlink:href="#g7"/></g><g><use y="10200" xlink:href="#g16"/><use y="10217" xlink:href="#g17"/><use y="10234" xlink:href="#g18"/><use y="10251" xlink:href="#g19"/><use y="10268" xlink:href="#g20"/><use y="10285" xlink:href="#g21"/><use y="10302" xlink:href="#g22"/><use y="10319" xlink:href="#g23"/><use y="10336" xlink:href="#g24"/><use y="10353" xlink:href="#g25"/><rect class="foreground" height="17" width="8" x="64" y="10387"/><use y="10387" xlink:href="#g8"/></g><g><use y="10540" xlink:href="#g16"/><use y="10557" xlink:href="#g17"/><use y="10574" xlink:href="#g18"/><use y="10591" xlink:href="#g19"/><use y="10608" xlink:href="#g20"/><use y="10625" xlink:href="#g21"/><use y="10642" xlink:href="#g22"/><use y="10659" xlink:href="#g23"/><use y="10676" xlink:href="#g24"/><use y="10693" xlink:href="#g25"/><rect class="foreground" height="17" width="8" x="72" y="10727"/><use y="10727" xlink:href="#g9"/></g><g><use y="10880" xlink:href="#g16"/><use y="10897" xlink:href="#g17"/><use y="10914" xlink:href="#g18"/><use y="10931" xlink:href="#g19"/><use y="10948" xlink:href="#g20"/><use y="10965" xlink:href="#g21"/><use y="10982" xlink:href="#g22"/><use y="10999" xlink:href="#g23"/><use y="11016" xlink:href="#g24"/><use y="11033" xlink:href="#g25"/><rect class="foreground" height="17" width="8" x="80" y="11067"/><use y="11067" xlink:href="#g10"/></g><g><use y="11220" xlink:href="#g16"/><use y="11237" xlink:href="#g17"/><use y="11254" xlink:href="#g18"/><use y="11271" xlink:href="#g19"/><use y="11288" xlink:href="#g20"/><use y="11305" xlink:href="#g21"/><use y="11322" xlink:href="#g22"/><use y="11339" xlink:href="#g23"/><use y="11356" xlink:href="#g24"/><use y="11373" xlink:href="#g25"/><rect class="foreground" height="17" width="8" x="88" y="11407"/><use y="11407" xlink:href="#g11"/></g><g><use y="11560" xlink:href="#g16"/><use y="11577" xlink:href="#g17"/><use y="11594" xlink:href="#g18"/><use y="11611" xlink:href="#g19"/><use y="11628" xlink:href="#g20"/><use y="11645" xlink:href="#g21"/><use y="11662" xlink:href="#g22"/><use y="11679" xlink:href="#g23"/><use y="11696" xlink:href="#g24"/><use y="11713" xlink:href="#g25"/><rect class="foreground" height="17" width="8" x="96" y="11747"/><use y="11747" xlink:href="#g12"/></g><g><use y="11900" xlink:href="#g16"/><use y="11917" xlink:href="#g17"/><use y="11934" xlink:href="#g18"/><use y="11951" xlink:href="#g19"/><use y="11968" xlink:href="#g20"/><use y="11985" xlink:href="#g21"/><use y="12002" xlink:href="#g22"/><use y="12019" xlink:href="#g23"/><use y="12036" xlink:href="#g24"/><use y="12053" xlink:href="#g25"/><rect class="foreground" height="17" width="8" x="104" y="12087"/><use y="12087" xlink:href="#g13"/></g><g><use y="12240" xlink:href="#g16"/><use y="12257" xlink:href="#g17"/><use y="12274" xlink:href="#g18"/><use y="12291" xlink:href="#g19"/><use y="12308" xlink:href="#g20"/><use y="12325" xlink:href="#g21"/><use y="12342" xlink:href="#g22"/><use y="12359" xlink:href="#g23"/><use y="12376" xlink:href="#g24"/><use y="12393" xlink:href="#g25"/><rect class="foreground" height="17" width="8" x="112" y="12427"/><use y="12427" xlink:href="#g14"/></g><g><use y="12580" xlink:href="#g16"/><use y="12597" xlink:href="#g17"/><use y="12614" xlink:href="#g18"/><use y="12631" xlink:href="#g19"/><use y="12648" xlink:href="#g20"/><use y="12665" xlink:href="#g21"/><use y="12682" xlink:href="#g22"/><use y="12699" xlink:href="#g23"/><use y="12716" xlink:href="#g24"/><use y="12733" xlink:href="#g25"/><rect class="foreground" height="17" width="8" x="120" y="12767"/><use y="12767" xlink:href="#g15"/></g><g><use y="12920" xlink:href="#g16"/><use y="12937" xlink:href="#g17"/><use y="12954" xlink:href="#g18"/><use y="12971" xlink:href="#g19"/><use y="12988" xlink:href="#g20"/><use y="13005" xlink:href="#g21"/><use y="13022" xlink:href="#g22"/><use y="13039" xlink:href="#g23"/><use y="13056" xlink:href="#g24"/><use y="13073" xlink:href="#g25"/><use y="13107" xlink:href="#g16"/><rect class="foreground" height="17" width="8" x="0" y="13124"/><use y="13124" xlink:href="#g1"/></g><g><use y="13260" xlink:href="#g16"/><use y="13277" xlink:href="#g17"/><use y="13294" xlink:href="#g18"/><use y="13311" xlink:href="#g19"/><use y="13328" xlink:href="#g20"/><use y="13345" xlink:href="#g21"/><use y="13362" xlink:href="#g22"/><use y="13379" xlink:href="#g23"/><use y="13396" xlink:href="#g24"/><use y="13413" xlink:href="#g25"/><use y="13447" xlink:href="#g16"/><use y="13464" xlink:href="#g17"/><rect class="foreground" height="17" width="8" x="0" y="13481"/><use y="13481" xlink:href="#g1"/></g><g><use y="13600" xlink:href="#g16"/><use y="13617" xlink:href="#g17"/><use y="13634" xlink:href="#g18"/><use y="13651" xlink:href="#g19"/><use y="13668" xlink:href="#g20"/><use y="13685" xlink:href="#g21"/><use y="13702" xlink:href="#g22"/><use y="13719" xlink:href="#g23"/><use y="13736" xlink:href="#g24"/><use y="13753" xlink:href="#g25"/><use y="13787" xlink:href="#g16"/><use y="13804" xlink:href="#g17"/><use y="13821" xlink:href="#g18"/><rect class="foreground" height="17" width="8" x="0" y="13838"/><use y="13838" xlink:href="#g1"/></g><g><use y="13940" xlink:href="#g16"/><use y="13957" xlink:href="#g17"/><use y="13974" xlink:href="#g18"/><use y="13991" xlink:href="#g19"/><use y="14008" xlink:href="#g20"/><use y="14025" xlink:href="#g21"/><use y="14042" xlink:href="#g22"/><use y="14059" xlink:href="#g23"/><use y="14076" xlink:href="#g24"/><use y="14093" xlink:href="#g25"/><use y="14127" xlink:href="#g16"/><use y="14144" xlink:href="#g17"/><use y="14161" xlink:href="#g18"/><use y="14178" xlink:href="#g26"/><rect class="foreground" height="17" width="8" x="0" y="14195"/><use y="14195" xlink:href="#g1"/></g><g><use y="14280" xlink:href="#g16"/><use y="14297" xlink:href="#g17"/><use y="14314" xlink:href="#g18"/><use y="14331" xlink:href="#g19"/><use y="14348" xlink:href="#g20"/><use y="14365" xlink:href="#g21"/><use y="14382" xlink:href="#g22"/><use y="14399" xlink:href="#g23"/><use y="14416" xlink:href="#g24"/><use y="14433" xlink:href="#g25"/><use y="14467" xlink:href="#g16"/><use y="14484" xlink:href="#g17"/><use y="14501" xlink:href="#g18"/><use y="14518" xlink:href="#g26"/><use y="14535" xlink:href="#g25"/><rect class="foreground" height="17" width="8" x="0" y="14552"/><use y="14552" xlink:href="#g1"/></g></g></svg>
</svg>
